<mxfile host="app.diagrams.net" modified="2023-08-17T17:36:08.772Z" agent="Mozilla/5.0 (Windows NT 10.0; Win64; x64) AppleWebKit/537.36 (KHTML, like Gecko) Chrome/116.0.0.0 Safari/537.36" etag="VfNS7gFN3hNpVEJH580z" version="21.6.8" type="device">
  <diagram name="PÃ¡gina-1" id="imn6Cz7SeFx2xPqbOVUJ">
    <mxGraphModel dx="2227" dy="765" grid="1" gridSize="10" guides="1" tooltips="1" connect="1" arrows="1" fold="1" page="1" pageScale="1" pageWidth="827" pageHeight="1169" math="0" shadow="0">
      <root>
        <mxCell id="0" />
        <mxCell id="1" parent="0" />
        <mxCell id="eO228P3NJNSkuCtOqqP1-1" value="Clinica" style="rounded=0;whiteSpace=wrap;html=1;" parent="1" vertex="1">
          <mxGeometry x="-250" y="230" width="120" height="60" as="geometry" />
        </mxCell>
        <mxCell id="_ayNkhIyPNn0-OuHJfd8-19" style="edgeStyle=orthogonalEdgeStyle;rounded=0;orthogonalLoop=1;jettySize=auto;html=1;entryX=0.5;entryY=0;entryDx=0;entryDy=0;endArrow=none;endFill=0;" parent="1" source="eO228P3NJNSkuCtOqqP1-4" target="_ayNkhIyPNn0-OuHJfd8-10" edge="1">
          <mxGeometry relative="1" as="geometry" />
        </mxCell>
        <mxCell id="_ayNkhIyPNn0-OuHJfd8-34" style="edgeStyle=orthogonalEdgeStyle;rounded=0;orthogonalLoop=1;jettySize=auto;html=1;entryX=0;entryY=0.5;entryDx=0;entryDy=0;endArrow=none;endFill=0;" parent="1" source="eO228P3NJNSkuCtOqqP1-4" target="_ayNkhIyPNn0-OuHJfd8-33" edge="1">
          <mxGeometry relative="1" as="geometry" />
        </mxCell>
        <mxCell id="eO228P3NJNSkuCtOqqP1-4" value="Consulta" style="rounded=0;whiteSpace=wrap;html=1;" parent="1" vertex="1">
          <mxGeometry x="290" y="40" width="120" height="60" as="geometry" />
        </mxCell>
        <mxCell id="_ayNkhIyPNn0-OuHJfd8-16" style="edgeStyle=orthogonalEdgeStyle;rounded=0;orthogonalLoop=1;jettySize=auto;html=1;endArrow=none;endFill=0;" parent="1" source="eO228P3NJNSkuCtOqqP1-5" target="_ayNkhIyPNn0-OuHJfd8-4" edge="1">
          <mxGeometry relative="1" as="geometry" />
        </mxCell>
        <mxCell id="_ayNkhIyPNn0-OuHJfd8-37" style="edgeStyle=orthogonalEdgeStyle;rounded=0;orthogonalLoop=1;jettySize=auto;html=1;entryX=1;entryY=0.5;entryDx=0;entryDy=0;endArrow=none;endFill=0;" parent="1" source="eO228P3NJNSkuCtOqqP1-5" target="_ayNkhIyPNn0-OuHJfd8-36" edge="1">
          <mxGeometry relative="1" as="geometry" />
        </mxCell>
        <mxCell id="eO228P3NJNSkuCtOqqP1-5" value="Medico" style="rounded=0;whiteSpace=wrap;html=1;" parent="1" vertex="1">
          <mxGeometry x="130" y="230" width="120" height="60" as="geometry" />
        </mxCell>
        <mxCell id="_ayNkhIyPNn0-OuHJfd8-31" style="edgeStyle=orthogonalEdgeStyle;rounded=0;orthogonalLoop=1;jettySize=auto;html=1;endArrow=none;endFill=0;" parent="1" source="eO228P3NJNSkuCtOqqP1-6" target="_ayNkhIyPNn0-OuHJfd8-30" edge="1">
          <mxGeometry relative="1" as="geometry" />
        </mxCell>
        <mxCell id="eO228P3NJNSkuCtOqqP1-6" value="Paciente" style="rounded=0;whiteSpace=wrap;html=1;" parent="1" vertex="1">
          <mxGeometry x="420" y="230" width="120" height="60" as="geometry" />
        </mxCell>
        <mxCell id="_ayNkhIyPNn0-OuHJfd8-1" value="Comentario" style="rounded=0;whiteSpace=wrap;html=1;" parent="1" vertex="1">
          <mxGeometry x="700" y="40" width="120" height="60" as="geometry" />
        </mxCell>
        <mxCell id="_ayNkhIyPNn0-OuHJfd8-3" value="Especialidade" style="rounded=0;whiteSpace=wrap;html=1;" parent="1" vertex="1">
          <mxGeometry x="130" y="510" width="120" height="60" as="geometry" />
        </mxCell>
        <mxCell id="_ayNkhIyPNn0-OuHJfd8-6" style="edgeStyle=orthogonalEdgeStyle;rounded=0;orthogonalLoop=1;jettySize=auto;html=1;entryX=0.5;entryY=0;entryDx=0;entryDy=0;endArrow=none;endFill=0;" parent="1" source="_ayNkhIyPNn0-OuHJfd8-4" target="_ayNkhIyPNn0-OuHJfd8-3" edge="1">
          <mxGeometry relative="1" as="geometry" />
        </mxCell>
        <mxCell id="_ayNkhIyPNn0-OuHJfd8-4" value="Possui" style="rhombus;whiteSpace=wrap;html=1;" parent="1" vertex="1">
          <mxGeometry x="150" y="350" width="80" height="80" as="geometry" />
        </mxCell>
        <mxCell id="_ayNkhIyPNn0-OuHJfd8-17" style="edgeStyle=orthogonalEdgeStyle;rounded=0;orthogonalLoop=1;jettySize=auto;html=1;entryX=0.5;entryY=0;entryDx=0;entryDy=0;endArrow=none;endFill=0;" parent="1" source="_ayNkhIyPNn0-OuHJfd8-10" target="eO228P3NJNSkuCtOqqP1-5" edge="1">
          <mxGeometry relative="1" as="geometry" />
        </mxCell>
        <mxCell id="_ayNkhIyPNn0-OuHJfd8-18" style="edgeStyle=orthogonalEdgeStyle;rounded=0;orthogonalLoop=1;jettySize=auto;html=1;endArrow=none;endFill=0;" parent="1" source="_ayNkhIyPNn0-OuHJfd8-10" target="eO228P3NJNSkuCtOqqP1-6" edge="1">
          <mxGeometry relative="1" as="geometry" />
        </mxCell>
        <mxCell id="_ayNkhIyPNn0-OuHJfd8-10" value="Possui" style="rhombus;whiteSpace=wrap;html=1;" parent="1" vertex="1">
          <mxGeometry x="310" y="130" width="80" height="80" as="geometry" />
        </mxCell>
        <mxCell id="_ayNkhIyPNn0-OuHJfd8-32" style="edgeStyle=orthogonalEdgeStyle;rounded=0;orthogonalLoop=1;jettySize=auto;html=1;entryX=0.5;entryY=1;entryDx=0;entryDy=0;endArrow=none;endFill=0;" parent="1" source="_ayNkhIyPNn0-OuHJfd8-30" target="_ayNkhIyPNn0-OuHJfd8-1" edge="1">
          <mxGeometry relative="1" as="geometry" />
        </mxCell>
        <mxCell id="_ayNkhIyPNn0-OuHJfd8-30" value="Possui" style="rhombus;whiteSpace=wrap;html=1;" parent="1" vertex="1">
          <mxGeometry x="720" y="220" width="80" height="80" as="geometry" />
        </mxCell>
        <mxCell id="_ayNkhIyPNn0-OuHJfd8-35" style="edgeStyle=orthogonalEdgeStyle;rounded=0;orthogonalLoop=1;jettySize=auto;html=1;entryX=0;entryY=0.5;entryDx=0;entryDy=0;endArrow=none;endFill=0;" parent="1" source="_ayNkhIyPNn0-OuHJfd8-33" target="_ayNkhIyPNn0-OuHJfd8-1" edge="1">
          <mxGeometry relative="1" as="geometry" />
        </mxCell>
        <mxCell id="_ayNkhIyPNn0-OuHJfd8-33" value="Possui" style="rhombus;whiteSpace=wrap;html=1;" parent="1" vertex="1">
          <mxGeometry x="510" y="30" width="80" height="80" as="geometry" />
        </mxCell>
        <mxCell id="_ayNkhIyPNn0-OuHJfd8-38" style="edgeStyle=orthogonalEdgeStyle;rounded=0;orthogonalLoop=1;jettySize=auto;html=1;entryX=1;entryY=0.5;entryDx=0;entryDy=0;endArrow=none;endFill=0;" parent="1" source="_ayNkhIyPNn0-OuHJfd8-36" target="eO228P3NJNSkuCtOqqP1-1" edge="1">
          <mxGeometry relative="1" as="geometry" />
        </mxCell>
        <mxCell id="_ayNkhIyPNn0-OuHJfd8-36" value="Possui" style="rhombus;whiteSpace=wrap;html=1;" parent="1" vertex="1">
          <mxGeometry x="-40" y="220" width="80" height="80" as="geometry" />
        </mxCell>
        <mxCell id="_ayNkhIyPNn0-OuHJfd8-39" value="1" style="text;html=1;strokeColor=none;fillColor=none;align=center;verticalAlign=middle;whiteSpace=wrap;rounded=0;" parent="1" vertex="1">
          <mxGeometry x="-150" y="260" width="60" height="30" as="geometry" />
        </mxCell>
        <mxCell id="_ayNkhIyPNn0-OuHJfd8-40" value="n" style="text;html=1;strokeColor=none;fillColor=none;align=center;verticalAlign=middle;whiteSpace=wrap;rounded=0;" parent="1" vertex="1">
          <mxGeometry x="90" y="260" width="60" height="30" as="geometry" />
        </mxCell>
        <mxCell id="_ayNkhIyPNn0-OuHJfd8-46" value="1" style="text;html=1;strokeColor=none;fillColor=none;align=center;verticalAlign=middle;whiteSpace=wrap;rounded=0;" parent="1" vertex="1">
          <mxGeometry x="390" y="40" width="60" height="30" as="geometry" />
        </mxCell>
        <mxCell id="_ayNkhIyPNn0-OuHJfd8-47" value="n" style="text;html=1;strokeColor=none;fillColor=none;align=center;verticalAlign=middle;whiteSpace=wrap;rounded=0;" parent="1" vertex="1">
          <mxGeometry x="650" y="40" width="60" height="30" as="geometry" />
        </mxCell>
        <mxCell id="_ayNkhIyPNn0-OuHJfd8-48" value="1" style="text;html=1;strokeColor=none;fillColor=none;align=center;verticalAlign=middle;whiteSpace=wrap;rounded=0;" parent="1" vertex="1">
          <mxGeometry x="520" y="260" width="60" height="30" as="geometry" />
        </mxCell>
        <mxCell id="_ayNkhIyPNn0-OuHJfd8-49" value="n" style="text;html=1;strokeColor=none;fillColor=none;align=center;verticalAlign=middle;whiteSpace=wrap;rounded=0;" parent="1" vertex="1">
          <mxGeometry x="710" y="100" width="60" height="30" as="geometry" />
        </mxCell>
        <mxCell id="_ayNkhIyPNn0-OuHJfd8-50" value="1" style="text;html=1;strokeColor=none;fillColor=none;align=center;verticalAlign=middle;whiteSpace=wrap;rounded=0;" parent="1" vertex="1">
          <mxGeometry x="180" y="480" width="60" height="30" as="geometry" />
        </mxCell>
        <mxCell id="_ayNkhIyPNn0-OuHJfd8-52" value="n" style="text;html=1;strokeColor=none;fillColor=none;align=center;verticalAlign=middle;whiteSpace=wrap;rounded=0;" parent="1" vertex="1">
          <mxGeometry x="180" y="290" width="60" height="30" as="geometry" />
        </mxCell>
        <mxCell id="_ayNkhIyPNn0-OuHJfd8-54" value="n" style="text;html=1;strokeColor=none;fillColor=none;align=center;verticalAlign=middle;whiteSpace=wrap;rounded=0;" parent="1" vertex="1">
          <mxGeometry x="300" y="100" width="60" height="30" as="geometry" />
        </mxCell>
        <mxCell id="_ayNkhIyPNn0-OuHJfd8-55" value="1" style="text;html=1;strokeColor=none;fillColor=none;align=center;verticalAlign=middle;whiteSpace=wrap;rounded=0;" parent="1" vertex="1">
          <mxGeometry x="180" y="200" width="60" height="30" as="geometry" />
        </mxCell>
        <mxCell id="_ayNkhIyPNn0-OuHJfd8-56" value="n" style="text;html=1;strokeColor=none;fillColor=none;align=center;verticalAlign=middle;whiteSpace=wrap;rounded=0;" parent="1" vertex="1">
          <mxGeometry x="340" y="100" width="60" height="30" as="geometry" />
        </mxCell>
        <mxCell id="_ayNkhIyPNn0-OuHJfd8-57" value="1" style="text;html=1;strokeColor=none;fillColor=none;align=center;verticalAlign=middle;whiteSpace=wrap;rounded=0;" parent="1" vertex="1">
          <mxGeometry x="470" y="200" width="60" height="30" as="geometry" />
        </mxCell>
        <mxCell id="_ayNkhIyPNn0-OuHJfd8-58" value="TipoUsuario" style="shape=table;startSize=30;container=1;collapsible=1;childLayout=tableLayout;fixedRows=1;rowLines=0;fontStyle=1;align=center;resizeLast=1;html=1;" parent="1" vertex="1">
          <mxGeometry x="920" y="470" width="180" height="90" as="geometry" />
        </mxCell>
        <mxCell id="_ayNkhIyPNn0-OuHJfd8-59" value="" style="shape=tableRow;horizontal=0;startSize=0;swimlaneHead=0;swimlaneBody=0;fillColor=none;collapsible=0;dropTarget=0;points=[[0,0.5],[1,0.5]];portConstraint=eastwest;top=0;left=0;right=0;bottom=1;" parent="_ayNkhIyPNn0-OuHJfd8-58" vertex="1">
          <mxGeometry y="30" width="180" height="30" as="geometry" />
        </mxCell>
        <mxCell id="_ayNkhIyPNn0-OuHJfd8-60" value="PK" style="shape=partialRectangle;connectable=0;fillColor=none;top=0;left=0;bottom=0;right=0;fontStyle=1;overflow=hidden;whiteSpace=wrap;html=1;" parent="_ayNkhIyPNn0-OuHJfd8-59" vertex="1">
          <mxGeometry width="30" height="30" as="geometry">
            <mxRectangle width="30" height="30" as="alternateBounds" />
          </mxGeometry>
        </mxCell>
        <mxCell id="_ayNkhIyPNn0-OuHJfd8-61" value="IdTipoUsuario" style="shape=partialRectangle;connectable=0;fillColor=none;top=0;left=0;bottom=0;right=0;align=left;spacingLeft=6;fontStyle=5;overflow=hidden;whiteSpace=wrap;html=1;" parent="_ayNkhIyPNn0-OuHJfd8-59" vertex="1">
          <mxGeometry x="30" width="150" height="30" as="geometry">
            <mxRectangle width="150" height="30" as="alternateBounds" />
          </mxGeometry>
        </mxCell>
        <mxCell id="_ayNkhIyPNn0-OuHJfd8-62" value="" style="shape=tableRow;horizontal=0;startSize=0;swimlaneHead=0;swimlaneBody=0;fillColor=none;collapsible=0;dropTarget=0;points=[[0,0.5],[1,0.5]];portConstraint=eastwest;top=0;left=0;right=0;bottom=0;" parent="_ayNkhIyPNn0-OuHJfd8-58" vertex="1">
          <mxGeometry y="60" width="180" height="30" as="geometry" />
        </mxCell>
        <mxCell id="_ayNkhIyPNn0-OuHJfd8-63" value="" style="shape=partialRectangle;connectable=0;fillColor=none;top=0;left=0;bottom=0;right=0;editable=1;overflow=hidden;whiteSpace=wrap;html=1;" parent="_ayNkhIyPNn0-OuHJfd8-62" vertex="1">
          <mxGeometry width="30" height="30" as="geometry">
            <mxRectangle width="30" height="30" as="alternateBounds" />
          </mxGeometry>
        </mxCell>
        <mxCell id="_ayNkhIyPNn0-OuHJfd8-64" value="NomeTipoUsuario" style="shape=partialRectangle;connectable=0;fillColor=none;top=0;left=0;bottom=0;right=0;align=left;spacingLeft=6;overflow=hidden;whiteSpace=wrap;html=1;" parent="_ayNkhIyPNn0-OuHJfd8-62" vertex="1">
          <mxGeometry x="30" width="150" height="30" as="geometry">
            <mxRectangle width="150" height="30" as="alternateBounds" />
          </mxGeometry>
        </mxCell>
        <mxCell id="_ayNkhIyPNn0-OuHJfd8-67" value="" style="shape=partialRectangle;connectable=0;fillColor=none;top=0;left=0;bottom=0;right=0;editable=1;overflow=hidden;html=1;whiteSpace=wrap;" parent="1" vertex="1">
          <mxGeometry x="1180" y="420" width="60" height="30" as="geometry">
            <mxRectangle width="60" height="30" as="alternateBounds" />
          </mxGeometry>
        </mxCell>
        <mxCell id="_ayNkhIyPNn0-OuHJfd8-68" value="" style="edgeStyle=entityRelationEdgeStyle;fontSize=12;html=1;endArrow=ERoneToMany;rounded=0;entryX=0;entryY=0.5;entryDx=0;entryDy=0;exitX=1;exitY=0.25;exitDx=0;exitDy=0;" parent="1" source="_ayNkhIyPNn0-OuHJfd8-58" target="_ayNkhIyPNn0-OuHJfd8-73" edge="1">
          <mxGeometry width="100" height="100" relative="1" as="geometry">
            <mxPoint x="1130" y="600" as="sourcePoint" />
            <mxPoint x="1421" y="383" as="targetPoint" />
          </mxGeometry>
        </mxCell>
        <mxCell id="_ayNkhIyPNn0-OuHJfd8-69" value="Usuario" style="shape=table;startSize=30;container=1;collapsible=1;childLayout=tableLayout;fixedRows=1;rowLines=0;fontStyle=1;align=center;resizeLast=1;html=1;whiteSpace=wrap;" parent="1" vertex="1">
          <mxGeometry x="1180" y="545" width="180" height="210" as="geometry" />
        </mxCell>
        <mxCell id="_ayNkhIyPNn0-OuHJfd8-70" value="" style="shape=tableRow;horizontal=0;startSize=0;swimlaneHead=0;swimlaneBody=0;fillColor=none;collapsible=0;dropTarget=0;points=[[0,0.5],[1,0.5]];portConstraint=eastwest;top=0;left=0;right=0;bottom=0;html=1;" parent="_ayNkhIyPNn0-OuHJfd8-69" vertex="1">
          <mxGeometry y="30" width="180" height="30" as="geometry" />
        </mxCell>
        <mxCell id="_ayNkhIyPNn0-OuHJfd8-71" value="PK" style="shape=partialRectangle;connectable=0;fillColor=none;top=0;left=0;bottom=0;right=0;fontStyle=1;overflow=hidden;html=1;whiteSpace=wrap;" parent="_ayNkhIyPNn0-OuHJfd8-70" vertex="1">
          <mxGeometry width="60" height="30" as="geometry">
            <mxRectangle width="60" height="30" as="alternateBounds" />
          </mxGeometry>
        </mxCell>
        <mxCell id="_ayNkhIyPNn0-OuHJfd8-72" value="IdUsuario" style="shape=partialRectangle;connectable=0;fillColor=none;top=0;left=0;bottom=0;right=0;align=left;spacingLeft=6;fontStyle=5;overflow=hidden;html=1;whiteSpace=wrap;" parent="_ayNkhIyPNn0-OuHJfd8-70" vertex="1">
          <mxGeometry x="60" width="120" height="30" as="geometry">
            <mxRectangle width="120" height="30" as="alternateBounds" />
          </mxGeometry>
        </mxCell>
        <mxCell id="_ayNkhIyPNn0-OuHJfd8-73" value="" style="shape=tableRow;horizontal=0;startSize=0;swimlaneHead=0;swimlaneBody=0;fillColor=none;collapsible=0;dropTarget=0;points=[[0,0.5],[1,0.5]];portConstraint=eastwest;top=0;left=0;right=0;bottom=1;html=1;" parent="_ayNkhIyPNn0-OuHJfd8-69" vertex="1">
          <mxGeometry y="60" width="180" height="30" as="geometry" />
        </mxCell>
        <mxCell id="_ayNkhIyPNn0-OuHJfd8-74" value="FK" style="shape=partialRectangle;connectable=0;fillColor=none;top=0;left=0;bottom=0;right=0;fontStyle=1;overflow=hidden;html=1;whiteSpace=wrap;" parent="_ayNkhIyPNn0-OuHJfd8-73" vertex="1">
          <mxGeometry width="60" height="30" as="geometry">
            <mxRectangle width="60" height="30" as="alternateBounds" />
          </mxGeometry>
        </mxCell>
        <mxCell id="_ayNkhIyPNn0-OuHJfd8-75" value="IdTipoUsuario" style="shape=partialRectangle;connectable=0;fillColor=none;top=0;left=0;bottom=0;right=0;align=left;spacingLeft=6;fontStyle=5;overflow=hidden;html=1;whiteSpace=wrap;" parent="_ayNkhIyPNn0-OuHJfd8-73" vertex="1">
          <mxGeometry x="60" width="120" height="30" as="geometry">
            <mxRectangle width="120" height="30" as="alternateBounds" />
          </mxGeometry>
        </mxCell>
        <mxCell id="_ayNkhIyPNn0-OuHJfd8-79" value="" style="shape=tableRow;horizontal=0;startSize=0;swimlaneHead=0;swimlaneBody=0;fillColor=none;collapsible=0;dropTarget=0;points=[[0,0.5],[1,0.5]];portConstraint=eastwest;top=0;left=0;right=0;bottom=0;html=1;" parent="_ayNkhIyPNn0-OuHJfd8-69" vertex="1">
          <mxGeometry y="90" width="180" height="30" as="geometry" />
        </mxCell>
        <mxCell id="_ayNkhIyPNn0-OuHJfd8-80" value="" style="shape=partialRectangle;connectable=0;fillColor=none;top=0;left=0;bottom=0;right=0;editable=1;overflow=hidden;html=1;whiteSpace=wrap;" parent="_ayNkhIyPNn0-OuHJfd8-79" vertex="1">
          <mxGeometry width="60" height="30" as="geometry">
            <mxRectangle width="60" height="30" as="alternateBounds" />
          </mxGeometry>
        </mxCell>
        <mxCell id="_ayNkhIyPNn0-OuHJfd8-81" value="Email" style="shape=partialRectangle;connectable=0;fillColor=none;top=0;left=0;bottom=0;right=0;align=left;spacingLeft=6;overflow=hidden;html=1;whiteSpace=wrap;" parent="_ayNkhIyPNn0-OuHJfd8-79" vertex="1">
          <mxGeometry x="60" width="120" height="30" as="geometry">
            <mxRectangle width="120" height="30" as="alternateBounds" />
          </mxGeometry>
        </mxCell>
        <mxCell id="e6GDGmhBVVtUxytlsHUv-1" style="shape=tableRow;horizontal=0;startSize=0;swimlaneHead=0;swimlaneBody=0;fillColor=none;collapsible=0;dropTarget=0;points=[[0,0.5],[1,0.5]];portConstraint=eastwest;top=0;left=0;right=0;bottom=0;html=1;" parent="_ayNkhIyPNn0-OuHJfd8-69" vertex="1">
          <mxGeometry y="120" width="180" height="30" as="geometry" />
        </mxCell>
        <mxCell id="e6GDGmhBVVtUxytlsHUv-2" style="shape=partialRectangle;connectable=0;fillColor=none;top=0;left=0;bottom=0;right=0;editable=1;overflow=hidden;html=1;whiteSpace=wrap;" parent="e6GDGmhBVVtUxytlsHUv-1" vertex="1">
          <mxGeometry width="60" height="30" as="geometry">
            <mxRectangle width="60" height="30" as="alternateBounds" />
          </mxGeometry>
        </mxCell>
        <mxCell id="e6GDGmhBVVtUxytlsHUv-3" value="DataDeNascimento" style="shape=partialRectangle;connectable=0;fillColor=none;top=0;left=0;bottom=0;right=0;align=left;spacingLeft=6;overflow=hidden;html=1;whiteSpace=wrap;" parent="e6GDGmhBVVtUxytlsHUv-1" vertex="1">
          <mxGeometry x="60" width="120" height="30" as="geometry">
            <mxRectangle width="120" height="30" as="alternateBounds" />
          </mxGeometry>
        </mxCell>
        <mxCell id="_ayNkhIyPNn0-OuHJfd8-239" style="shape=tableRow;horizontal=0;startSize=0;swimlaneHead=0;swimlaneBody=0;fillColor=none;collapsible=0;dropTarget=0;points=[[0,0.5],[1,0.5]];portConstraint=eastwest;top=0;left=0;right=0;bottom=0;html=1;" parent="_ayNkhIyPNn0-OuHJfd8-69" vertex="1">
          <mxGeometry y="150" width="180" height="30" as="geometry" />
        </mxCell>
        <mxCell id="_ayNkhIyPNn0-OuHJfd8-240" style="shape=partialRectangle;connectable=0;fillColor=none;top=0;left=0;bottom=0;right=0;editable=1;overflow=hidden;html=1;whiteSpace=wrap;" parent="_ayNkhIyPNn0-OuHJfd8-239" vertex="1">
          <mxGeometry width="60" height="30" as="geometry">
            <mxRectangle width="60" height="30" as="alternateBounds" />
          </mxGeometry>
        </mxCell>
        <mxCell id="_ayNkhIyPNn0-OuHJfd8-241" value="Nome" style="shape=partialRectangle;connectable=0;fillColor=none;top=0;left=0;bottom=0;right=0;align=left;spacingLeft=6;overflow=hidden;html=1;whiteSpace=wrap;" parent="_ayNkhIyPNn0-OuHJfd8-239" vertex="1">
          <mxGeometry x="60" width="120" height="30" as="geometry">
            <mxRectangle width="120" height="30" as="alternateBounds" />
          </mxGeometry>
        </mxCell>
        <mxCell id="_ayNkhIyPNn0-OuHJfd8-82" style="shape=tableRow;horizontal=0;startSize=0;swimlaneHead=0;swimlaneBody=0;fillColor=none;collapsible=0;dropTarget=0;points=[[0,0.5],[1,0.5]];portConstraint=eastwest;top=0;left=0;right=0;bottom=0;html=1;" parent="_ayNkhIyPNn0-OuHJfd8-69" vertex="1">
          <mxGeometry y="180" width="180" height="30" as="geometry" />
        </mxCell>
        <mxCell id="_ayNkhIyPNn0-OuHJfd8-83" style="shape=partialRectangle;connectable=0;fillColor=none;top=0;left=0;bottom=0;right=0;editable=1;overflow=hidden;html=1;whiteSpace=wrap;" parent="_ayNkhIyPNn0-OuHJfd8-82" vertex="1">
          <mxGeometry width="60" height="30" as="geometry">
            <mxRectangle width="60" height="30" as="alternateBounds" />
          </mxGeometry>
        </mxCell>
        <mxCell id="_ayNkhIyPNn0-OuHJfd8-84" value="Senha" style="shape=partialRectangle;connectable=0;fillColor=none;top=0;left=0;bottom=0;right=0;align=left;spacingLeft=6;overflow=hidden;html=1;whiteSpace=wrap;" parent="_ayNkhIyPNn0-OuHJfd8-82" vertex="1">
          <mxGeometry x="60" width="120" height="30" as="geometry">
            <mxRectangle width="120" height="30" as="alternateBounds" />
          </mxGeometry>
        </mxCell>
        <mxCell id="_ayNkhIyPNn0-OuHJfd8-101" style="edgeStyle=orthogonalEdgeStyle;rounded=0;orthogonalLoop=1;jettySize=auto;html=1;entryX=0.5;entryY=1;entryDx=0;entryDy=0;endArrow=none;endFill=0;" parent="1" source="_ayNkhIyPNn0-OuHJfd8-89" target="eO228P3NJNSkuCtOqqP1-6" edge="1">
          <mxGeometry relative="1" as="geometry" />
        </mxCell>
        <mxCell id="_ayNkhIyPNn0-OuHJfd8-227" style="edgeStyle=orthogonalEdgeStyle;rounded=0;orthogonalLoop=1;jettySize=auto;html=1;entryX=1;entryY=0.5;entryDx=0;entryDy=0;endArrow=none;endFill=0;" parent="1" source="_ayNkhIyPNn0-OuHJfd8-89" target="eO228P3NJNSkuCtOqqP1-5" edge="1">
          <mxGeometry relative="1" as="geometry" />
        </mxCell>
        <mxCell id="_ayNkhIyPNn0-OuHJfd8-89" value="Possui" style="rhombus;whiteSpace=wrap;html=1;" parent="1" vertex="1">
          <mxGeometry x="440" y="320" width="80" height="80" as="geometry" />
        </mxCell>
        <mxCell id="_ayNkhIyPNn0-OuHJfd8-99" style="edgeStyle=orthogonalEdgeStyle;rounded=0;orthogonalLoop=1;jettySize=auto;html=1;endArrow=none;endFill=0;" parent="1" source="_ayNkhIyPNn0-OuHJfd8-91" target="_ayNkhIyPNn0-OuHJfd8-94" edge="1">
          <mxGeometry relative="1" as="geometry" />
        </mxCell>
        <mxCell id="_ayNkhIyPNn0-OuHJfd8-91" value="Possui" style="rhombus;whiteSpace=wrap;html=1;" parent="1" vertex="1">
          <mxGeometry x="440" y="540" width="80" height="80" as="geometry" />
        </mxCell>
        <mxCell id="_ayNkhIyPNn0-OuHJfd8-98" style="edgeStyle=orthogonalEdgeStyle;rounded=0;orthogonalLoop=1;jettySize=auto;html=1;endArrow=none;endFill=0;" parent="1" source="_ayNkhIyPNn0-OuHJfd8-92" target="_ayNkhIyPNn0-OuHJfd8-91" edge="1">
          <mxGeometry relative="1" as="geometry" />
        </mxCell>
        <mxCell id="_ayNkhIyPNn0-OuHJfd8-92" value="TipoUsuario" style="rounded=0;whiteSpace=wrap;html=1;" parent="1" vertex="1">
          <mxGeometry x="420" y="660" width="120" height="60" as="geometry" />
        </mxCell>
        <mxCell id="_ayNkhIyPNn0-OuHJfd8-100" style="edgeStyle=orthogonalEdgeStyle;rounded=0;orthogonalLoop=1;jettySize=auto;html=1;entryX=0.5;entryY=1;entryDx=0;entryDy=0;endArrow=none;endFill=0;" parent="1" source="_ayNkhIyPNn0-OuHJfd8-94" target="_ayNkhIyPNn0-OuHJfd8-89" edge="1">
          <mxGeometry relative="1" as="geometry" />
        </mxCell>
        <mxCell id="_ayNkhIyPNn0-OuHJfd8-94" value="Usuario" style="rounded=0;whiteSpace=wrap;html=1;" parent="1" vertex="1">
          <mxGeometry x="420" y="440" width="120" height="60" as="geometry" />
        </mxCell>
        <mxCell id="_ayNkhIyPNn0-OuHJfd8-102" value="1" style="text;html=1;strokeColor=none;fillColor=none;align=center;verticalAlign=middle;whiteSpace=wrap;rounded=0;" parent="1" vertex="1">
          <mxGeometry x="470" y="630" width="60" height="30" as="geometry" />
        </mxCell>
        <mxCell id="_ayNkhIyPNn0-OuHJfd8-103" value="n" style="text;html=1;strokeColor=none;fillColor=none;align=center;verticalAlign=middle;whiteSpace=wrap;rounded=0;" parent="1" vertex="1">
          <mxGeometry x="470" y="500" width="60" height="30" as="geometry" />
        </mxCell>
        <mxCell id="_ayNkhIyPNn0-OuHJfd8-104" value="1" style="text;html=1;strokeColor=none;fillColor=none;align=center;verticalAlign=middle;whiteSpace=wrap;rounded=0;" parent="1" vertex="1">
          <mxGeometry x="460" y="410" width="60" height="30" as="geometry" />
        </mxCell>
        <mxCell id="_ayNkhIyPNn0-OuHJfd8-105" value="1" style="text;html=1;strokeColor=none;fillColor=none;align=center;verticalAlign=middle;whiteSpace=wrap;rounded=0;" parent="1" vertex="1">
          <mxGeometry x="460" y="290" width="60" height="30" as="geometry" />
        </mxCell>
        <mxCell id="_ayNkhIyPNn0-OuHJfd8-106" value="Paciente" style="shape=table;startSize=30;container=1;collapsible=1;childLayout=tableLayout;fixedRows=1;rowLines=0;fontStyle=1;align=center;resizeLast=1;html=1;whiteSpace=wrap;" parent="1" vertex="1">
          <mxGeometry x="1430" y="575" width="180" height="120" as="geometry" />
        </mxCell>
        <mxCell id="_ayNkhIyPNn0-OuHJfd8-107" value="" style="shape=tableRow;horizontal=0;startSize=0;swimlaneHead=0;swimlaneBody=0;fillColor=none;collapsible=0;dropTarget=0;points=[[0,0.5],[1,0.5]];portConstraint=eastwest;top=0;left=0;right=0;bottom=0;html=1;" parent="_ayNkhIyPNn0-OuHJfd8-106" vertex="1">
          <mxGeometry y="30" width="180" height="30" as="geometry" />
        </mxCell>
        <mxCell id="_ayNkhIyPNn0-OuHJfd8-108" value="PK" style="shape=partialRectangle;connectable=0;fillColor=none;top=0;left=0;bottom=0;right=0;fontStyle=1;overflow=hidden;html=1;whiteSpace=wrap;" parent="_ayNkhIyPNn0-OuHJfd8-107" vertex="1">
          <mxGeometry width="60" height="30" as="geometry">
            <mxRectangle width="60" height="30" as="alternateBounds" />
          </mxGeometry>
        </mxCell>
        <mxCell id="_ayNkhIyPNn0-OuHJfd8-109" value="IdPaciente" style="shape=partialRectangle;connectable=0;fillColor=none;top=0;left=0;bottom=0;right=0;align=left;spacingLeft=6;fontStyle=5;overflow=hidden;html=1;whiteSpace=wrap;" parent="_ayNkhIyPNn0-OuHJfd8-107" vertex="1">
          <mxGeometry x="60" width="120" height="30" as="geometry">
            <mxRectangle width="120" height="30" as="alternateBounds" />
          </mxGeometry>
        </mxCell>
        <mxCell id="_ayNkhIyPNn0-OuHJfd8-110" value="" style="shape=tableRow;horizontal=0;startSize=0;swimlaneHead=0;swimlaneBody=0;fillColor=none;collapsible=0;dropTarget=0;points=[[0,0.5],[1,0.5]];portConstraint=eastwest;top=0;left=0;right=0;bottom=1;html=1;" parent="_ayNkhIyPNn0-OuHJfd8-106" vertex="1">
          <mxGeometry y="60" width="180" height="30" as="geometry" />
        </mxCell>
        <mxCell id="_ayNkhIyPNn0-OuHJfd8-111" value="FK1" style="shape=partialRectangle;connectable=0;fillColor=none;top=0;left=0;bottom=0;right=0;fontStyle=1;overflow=hidden;html=1;whiteSpace=wrap;" parent="_ayNkhIyPNn0-OuHJfd8-110" vertex="1">
          <mxGeometry width="60" height="30" as="geometry">
            <mxRectangle width="60" height="30" as="alternateBounds" />
          </mxGeometry>
        </mxCell>
        <mxCell id="_ayNkhIyPNn0-OuHJfd8-112" value="IdUsuario" style="shape=partialRectangle;connectable=0;fillColor=none;top=0;left=0;bottom=0;right=0;align=left;spacingLeft=6;fontStyle=5;overflow=hidden;html=1;whiteSpace=wrap;" parent="_ayNkhIyPNn0-OuHJfd8-110" vertex="1">
          <mxGeometry x="60" width="120" height="30" as="geometry">
            <mxRectangle width="120" height="30" as="alternateBounds" />
          </mxGeometry>
        </mxCell>
        <mxCell id="_ayNkhIyPNn0-OuHJfd8-137" style="shape=tableRow;horizontal=0;startSize=0;swimlaneHead=0;swimlaneBody=0;fillColor=none;collapsible=0;dropTarget=0;points=[[0,0.5],[1,0.5]];portConstraint=eastwest;top=0;left=0;right=0;bottom=0;html=1;" parent="_ayNkhIyPNn0-OuHJfd8-106" vertex="1">
          <mxGeometry y="90" width="180" height="30" as="geometry" />
        </mxCell>
        <mxCell id="_ayNkhIyPNn0-OuHJfd8-138" style="shape=partialRectangle;connectable=0;fillColor=none;top=0;left=0;bottom=0;right=0;editable=1;overflow=hidden;html=1;whiteSpace=wrap;" parent="_ayNkhIyPNn0-OuHJfd8-137" vertex="1">
          <mxGeometry width="60" height="30" as="geometry">
            <mxRectangle width="60" height="30" as="alternateBounds" />
          </mxGeometry>
        </mxCell>
        <mxCell id="_ayNkhIyPNn0-OuHJfd8-139" value="CPF" style="shape=partialRectangle;connectable=0;fillColor=none;top=0;left=0;bottom=0;right=0;align=left;spacingLeft=6;overflow=hidden;html=1;whiteSpace=wrap;" parent="_ayNkhIyPNn0-OuHJfd8-137" vertex="1">
          <mxGeometry x="60" width="120" height="30" as="geometry">
            <mxRectangle width="120" height="30" as="alternateBounds" />
          </mxGeometry>
        </mxCell>
        <mxCell id="_ayNkhIyPNn0-OuHJfd8-119" value="" style="edgeStyle=entityRelationEdgeStyle;fontSize=12;html=1;endArrow=ERmandOne;startArrow=ERmandOne;rounded=0;entryX=1;entryY=0.5;entryDx=0;entryDy=0;exitX=0;exitY=0.5;exitDx=0;exitDy=0;" parent="1" source="_ayNkhIyPNn0-OuHJfd8-110" target="_ayNkhIyPNn0-OuHJfd8-70" edge="1">
          <mxGeometry width="100" height="100" relative="1" as="geometry">
            <mxPoint x="980" y="360" as="sourcePoint" />
            <mxPoint x="1080" y="260" as="targetPoint" />
          </mxGeometry>
        </mxCell>
        <mxCell id="_ayNkhIyPNn0-OuHJfd8-120" value="Comentario" style="shape=table;startSize=30;container=1;collapsible=1;childLayout=tableLayout;fixedRows=1;rowLines=0;fontStyle=1;align=center;resizeLast=1;html=1;whiteSpace=wrap;" parent="1" vertex="1">
          <mxGeometry x="2000" y="545" width="180" height="150" as="geometry" />
        </mxCell>
        <mxCell id="_ayNkhIyPNn0-OuHJfd8-121" value="" style="shape=tableRow;horizontal=0;startSize=0;swimlaneHead=0;swimlaneBody=0;fillColor=none;collapsible=0;dropTarget=0;points=[[0,0.5],[1,0.5]];portConstraint=eastwest;top=0;left=0;right=0;bottom=0;html=1;" parent="_ayNkhIyPNn0-OuHJfd8-120" vertex="1">
          <mxGeometry y="30" width="180" height="30" as="geometry" />
        </mxCell>
        <mxCell id="_ayNkhIyPNn0-OuHJfd8-122" value="PK" style="shape=partialRectangle;connectable=0;fillColor=none;top=0;left=0;bottom=0;right=0;fontStyle=1;overflow=hidden;html=1;whiteSpace=wrap;" parent="_ayNkhIyPNn0-OuHJfd8-121" vertex="1">
          <mxGeometry width="60" height="30" as="geometry">
            <mxRectangle width="60" height="30" as="alternateBounds" />
          </mxGeometry>
        </mxCell>
        <mxCell id="_ayNkhIyPNn0-OuHJfd8-123" value="IdComentario" style="shape=partialRectangle;connectable=0;fillColor=none;top=0;left=0;bottom=0;right=0;align=left;spacingLeft=6;fontStyle=5;overflow=hidden;html=1;whiteSpace=wrap;" parent="_ayNkhIyPNn0-OuHJfd8-121" vertex="1">
          <mxGeometry x="60" width="120" height="30" as="geometry">
            <mxRectangle width="120" height="30" as="alternateBounds" />
          </mxGeometry>
        </mxCell>
        <mxCell id="_ayNkhIyPNn0-OuHJfd8-133" style="shape=tableRow;horizontal=0;startSize=0;swimlaneHead=0;swimlaneBody=0;fillColor=none;collapsible=0;dropTarget=0;points=[[0,0.5],[1,0.5]];portConstraint=eastwest;top=0;left=0;right=0;bottom=0;html=1;" parent="_ayNkhIyPNn0-OuHJfd8-120" vertex="1">
          <mxGeometry y="60" width="180" height="30" as="geometry" />
        </mxCell>
        <mxCell id="_ayNkhIyPNn0-OuHJfd8-134" value="FK1" style="shape=partialRectangle;connectable=0;fillColor=none;top=0;left=0;bottom=0;right=0;fontStyle=1;overflow=hidden;html=1;whiteSpace=wrap;" parent="_ayNkhIyPNn0-OuHJfd8-133" vertex="1">
          <mxGeometry width="60" height="30" as="geometry">
            <mxRectangle width="60" height="30" as="alternateBounds" />
          </mxGeometry>
        </mxCell>
        <mxCell id="_ayNkhIyPNn0-OuHJfd8-135" value="IdPaciente" style="shape=partialRectangle;connectable=0;fillColor=none;top=0;left=0;bottom=0;right=0;align=left;spacingLeft=6;fontStyle=5;overflow=hidden;html=1;whiteSpace=wrap;" parent="_ayNkhIyPNn0-OuHJfd8-133" vertex="1">
          <mxGeometry x="60" width="120" height="30" as="geometry">
            <mxRectangle width="120" height="30" as="alternateBounds" />
          </mxGeometry>
        </mxCell>
        <mxCell id="_ayNkhIyPNn0-OuHJfd8-124" value="" style="shape=tableRow;horizontal=0;startSize=0;swimlaneHead=0;swimlaneBody=0;fillColor=none;collapsible=0;dropTarget=0;points=[[0,0.5],[1,0.5]];portConstraint=eastwest;top=0;left=0;right=0;bottom=1;html=1;" parent="_ayNkhIyPNn0-OuHJfd8-120" vertex="1">
          <mxGeometry y="90" width="180" height="30" as="geometry" />
        </mxCell>
        <mxCell id="_ayNkhIyPNn0-OuHJfd8-125" value="FK2" style="shape=partialRectangle;connectable=0;fillColor=none;top=0;left=0;bottom=0;right=0;fontStyle=1;overflow=hidden;html=1;whiteSpace=wrap;" parent="_ayNkhIyPNn0-OuHJfd8-124" vertex="1">
          <mxGeometry width="60" height="30" as="geometry">
            <mxRectangle width="60" height="30" as="alternateBounds" />
          </mxGeometry>
        </mxCell>
        <mxCell id="_ayNkhIyPNn0-OuHJfd8-126" value="IdConsulta" style="shape=partialRectangle;connectable=0;fillColor=none;top=0;left=0;bottom=0;right=0;align=left;spacingLeft=6;fontStyle=5;overflow=hidden;html=1;whiteSpace=wrap;" parent="_ayNkhIyPNn0-OuHJfd8-124" vertex="1">
          <mxGeometry x="60" width="120" height="30" as="geometry">
            <mxRectangle width="120" height="30" as="alternateBounds" />
          </mxGeometry>
        </mxCell>
        <mxCell id="_ayNkhIyPNn0-OuHJfd8-127" value="" style="shape=tableRow;horizontal=0;startSize=0;swimlaneHead=0;swimlaneBody=0;fillColor=none;collapsible=0;dropTarget=0;points=[[0,0.5],[1,0.5]];portConstraint=eastwest;top=0;left=0;right=0;bottom=0;html=1;" parent="_ayNkhIyPNn0-OuHJfd8-120" vertex="1">
          <mxGeometry y="120" width="180" height="30" as="geometry" />
        </mxCell>
        <mxCell id="_ayNkhIyPNn0-OuHJfd8-128" value="" style="shape=partialRectangle;connectable=0;fillColor=none;top=0;left=0;bottom=0;right=0;editable=1;overflow=hidden;html=1;whiteSpace=wrap;" parent="_ayNkhIyPNn0-OuHJfd8-127" vertex="1">
          <mxGeometry width="60" height="30" as="geometry">
            <mxRectangle width="60" height="30" as="alternateBounds" />
          </mxGeometry>
        </mxCell>
        <mxCell id="_ayNkhIyPNn0-OuHJfd8-129" value="Descricao" style="shape=partialRectangle;connectable=0;fillColor=none;top=0;left=0;bottom=0;right=0;align=left;spacingLeft=6;overflow=hidden;html=1;whiteSpace=wrap;" parent="_ayNkhIyPNn0-OuHJfd8-127" vertex="1">
          <mxGeometry x="60" width="120" height="30" as="geometry">
            <mxRectangle width="120" height="30" as="alternateBounds" />
          </mxGeometry>
        </mxCell>
        <mxCell id="_ayNkhIyPNn0-OuHJfd8-140" value="Consulta" style="shape=table;startSize=30;container=1;collapsible=1;childLayout=tableLayout;fixedRows=1;rowLines=0;fontStyle=1;align=center;resizeLast=1;html=1;whiteSpace=wrap;" parent="1" vertex="1">
          <mxGeometry x="1670" y="730" width="180" height="180" as="geometry" />
        </mxCell>
        <mxCell id="_ayNkhIyPNn0-OuHJfd8-141" value="" style="shape=tableRow;horizontal=0;startSize=0;swimlaneHead=0;swimlaneBody=0;fillColor=none;collapsible=0;dropTarget=0;points=[[0,0.5],[1,0.5]];portConstraint=eastwest;top=0;left=0;right=0;bottom=0;html=1;" parent="_ayNkhIyPNn0-OuHJfd8-140" vertex="1">
          <mxGeometry y="30" width="180" height="30" as="geometry" />
        </mxCell>
        <mxCell id="_ayNkhIyPNn0-OuHJfd8-142" value="PK" style="shape=partialRectangle;connectable=0;fillColor=none;top=0;left=0;bottom=0;right=0;fontStyle=1;overflow=hidden;html=1;whiteSpace=wrap;" parent="_ayNkhIyPNn0-OuHJfd8-141" vertex="1">
          <mxGeometry width="60" height="30" as="geometry">
            <mxRectangle width="60" height="30" as="alternateBounds" />
          </mxGeometry>
        </mxCell>
        <mxCell id="_ayNkhIyPNn0-OuHJfd8-143" value="IdConsulta" style="shape=partialRectangle;connectable=0;fillColor=none;top=0;left=0;bottom=0;right=0;align=left;spacingLeft=6;fontStyle=5;overflow=hidden;html=1;whiteSpace=wrap;" parent="_ayNkhIyPNn0-OuHJfd8-141" vertex="1">
          <mxGeometry x="60" width="120" height="30" as="geometry">
            <mxRectangle width="120" height="30" as="alternateBounds" />
          </mxGeometry>
        </mxCell>
        <mxCell id="_ayNkhIyPNn0-OuHJfd8-195" style="shape=tableRow;horizontal=0;startSize=0;swimlaneHead=0;swimlaneBody=0;fillColor=none;collapsible=0;dropTarget=0;points=[[0,0.5],[1,0.5]];portConstraint=eastwest;top=0;left=0;right=0;bottom=0;html=1;" parent="_ayNkhIyPNn0-OuHJfd8-140" vertex="1">
          <mxGeometry y="60" width="180" height="30" as="geometry" />
        </mxCell>
        <mxCell id="_ayNkhIyPNn0-OuHJfd8-196" value="FK1" style="shape=partialRectangle;connectable=0;fillColor=none;top=0;left=0;bottom=0;right=0;fontStyle=1;overflow=hidden;html=1;whiteSpace=wrap;" parent="_ayNkhIyPNn0-OuHJfd8-195" vertex="1">
          <mxGeometry width="60" height="30" as="geometry">
            <mxRectangle width="60" height="30" as="alternateBounds" />
          </mxGeometry>
        </mxCell>
        <mxCell id="_ayNkhIyPNn0-OuHJfd8-197" value="IdPaciente" style="shape=partialRectangle;connectable=0;fillColor=none;top=0;left=0;bottom=0;right=0;align=left;spacingLeft=6;fontStyle=5;overflow=hidden;html=1;whiteSpace=wrap;" parent="_ayNkhIyPNn0-OuHJfd8-195" vertex="1">
          <mxGeometry x="60" width="120" height="30" as="geometry">
            <mxRectangle width="120" height="30" as="alternateBounds" />
          </mxGeometry>
        </mxCell>
        <mxCell id="_ayNkhIyPNn0-OuHJfd8-144" value="" style="shape=tableRow;horizontal=0;startSize=0;swimlaneHead=0;swimlaneBody=0;fillColor=none;collapsible=0;dropTarget=0;points=[[0,0.5],[1,0.5]];portConstraint=eastwest;top=0;left=0;right=0;bottom=1;html=1;" parent="_ayNkhIyPNn0-OuHJfd8-140" vertex="1">
          <mxGeometry y="90" width="180" height="30" as="geometry" />
        </mxCell>
        <mxCell id="_ayNkhIyPNn0-OuHJfd8-145" value="FK2" style="shape=partialRectangle;connectable=0;fillColor=none;top=0;left=0;bottom=0;right=0;fontStyle=1;overflow=hidden;html=1;whiteSpace=wrap;" parent="_ayNkhIyPNn0-OuHJfd8-144" vertex="1">
          <mxGeometry width="60" height="30" as="geometry">
            <mxRectangle width="60" height="30" as="alternateBounds" />
          </mxGeometry>
        </mxCell>
        <mxCell id="_ayNkhIyPNn0-OuHJfd8-146" value="IdMedico" style="shape=partialRectangle;connectable=0;fillColor=none;top=0;left=0;bottom=0;right=0;align=left;spacingLeft=6;fontStyle=5;overflow=hidden;html=1;whiteSpace=wrap;" parent="_ayNkhIyPNn0-OuHJfd8-144" vertex="1">
          <mxGeometry x="60" width="120" height="30" as="geometry">
            <mxRectangle width="120" height="30" as="alternateBounds" />
          </mxGeometry>
        </mxCell>
        <mxCell id="_ayNkhIyPNn0-OuHJfd8-147" value="" style="shape=tableRow;horizontal=0;startSize=0;swimlaneHead=0;swimlaneBody=0;fillColor=none;collapsible=0;dropTarget=0;points=[[0,0.5],[1,0.5]];portConstraint=eastwest;top=0;left=0;right=0;bottom=0;html=1;" parent="_ayNkhIyPNn0-OuHJfd8-140" vertex="1">
          <mxGeometry y="120" width="180" height="30" as="geometry" />
        </mxCell>
        <mxCell id="_ayNkhIyPNn0-OuHJfd8-148" value="" style="shape=partialRectangle;connectable=0;fillColor=none;top=0;left=0;bottom=0;right=0;editable=1;overflow=hidden;html=1;whiteSpace=wrap;" parent="_ayNkhIyPNn0-OuHJfd8-147" vertex="1">
          <mxGeometry width="60" height="30" as="geometry">
            <mxRectangle width="60" height="30" as="alternateBounds" />
          </mxGeometry>
        </mxCell>
        <mxCell id="_ayNkhIyPNn0-OuHJfd8-149" value="Data" style="shape=partialRectangle;connectable=0;fillColor=none;top=0;left=0;bottom=0;right=0;align=left;spacingLeft=6;overflow=hidden;html=1;whiteSpace=wrap;" parent="_ayNkhIyPNn0-OuHJfd8-147" vertex="1">
          <mxGeometry x="60" width="120" height="30" as="geometry">
            <mxRectangle width="120" height="30" as="alternateBounds" />
          </mxGeometry>
        </mxCell>
        <mxCell id="_ayNkhIyPNn0-OuHJfd8-150" value="" style="shape=tableRow;horizontal=0;startSize=0;swimlaneHead=0;swimlaneBody=0;fillColor=none;collapsible=0;dropTarget=0;points=[[0,0.5],[1,0.5]];portConstraint=eastwest;top=0;left=0;right=0;bottom=0;html=1;" parent="_ayNkhIyPNn0-OuHJfd8-140" vertex="1">
          <mxGeometry y="150" width="180" height="30" as="geometry" />
        </mxCell>
        <mxCell id="_ayNkhIyPNn0-OuHJfd8-151" value="" style="shape=partialRectangle;connectable=0;fillColor=none;top=0;left=0;bottom=0;right=0;editable=1;overflow=hidden;html=1;whiteSpace=wrap;" parent="_ayNkhIyPNn0-OuHJfd8-150" vertex="1">
          <mxGeometry width="60" height="30" as="geometry">
            <mxRectangle width="60" height="30" as="alternateBounds" />
          </mxGeometry>
        </mxCell>
        <mxCell id="_ayNkhIyPNn0-OuHJfd8-152" value="Descricao/prontuario" style="shape=partialRectangle;connectable=0;fillColor=none;top=0;left=0;bottom=0;right=0;align=left;spacingLeft=6;overflow=hidden;html=1;whiteSpace=wrap;" parent="_ayNkhIyPNn0-OuHJfd8-150" vertex="1">
          <mxGeometry x="60" width="120" height="30" as="geometry">
            <mxRectangle width="120" height="30" as="alternateBounds" />
          </mxGeometry>
        </mxCell>
        <mxCell id="_ayNkhIyPNn0-OuHJfd8-153" value="Clinica" style="shape=table;startSize=30;container=1;collapsible=1;childLayout=tableLayout;fixedRows=1;rowLines=0;fontStyle=1;align=center;resizeLast=1;html=1;" parent="1" vertex="1">
          <mxGeometry x="1450" y="1060" width="180" height="210" as="geometry" />
        </mxCell>
        <mxCell id="_ayNkhIyPNn0-OuHJfd8-154" value="" style="shape=tableRow;horizontal=0;startSize=0;swimlaneHead=0;swimlaneBody=0;fillColor=none;collapsible=0;dropTarget=0;points=[[0,0.5],[1,0.5]];portConstraint=eastwest;top=0;left=0;right=0;bottom=1;" parent="_ayNkhIyPNn0-OuHJfd8-153" vertex="1">
          <mxGeometry y="30" width="180" height="30" as="geometry" />
        </mxCell>
        <mxCell id="_ayNkhIyPNn0-OuHJfd8-155" value="PK" style="shape=partialRectangle;connectable=0;fillColor=none;top=0;left=0;bottom=0;right=0;fontStyle=1;overflow=hidden;whiteSpace=wrap;html=1;" parent="_ayNkhIyPNn0-OuHJfd8-154" vertex="1">
          <mxGeometry width="30" height="30" as="geometry">
            <mxRectangle width="30" height="30" as="alternateBounds" />
          </mxGeometry>
        </mxCell>
        <mxCell id="_ayNkhIyPNn0-OuHJfd8-156" value="IdClinica" style="shape=partialRectangle;connectable=0;fillColor=none;top=0;left=0;bottom=0;right=0;align=left;spacingLeft=6;fontStyle=5;overflow=hidden;whiteSpace=wrap;html=1;" parent="_ayNkhIyPNn0-OuHJfd8-154" vertex="1">
          <mxGeometry x="30" width="150" height="30" as="geometry">
            <mxRectangle width="150" height="30" as="alternateBounds" />
          </mxGeometry>
        </mxCell>
        <mxCell id="_ayNkhIyPNn0-OuHJfd8-157" value="" style="shape=tableRow;horizontal=0;startSize=0;swimlaneHead=0;swimlaneBody=0;fillColor=none;collapsible=0;dropTarget=0;points=[[0,0.5],[1,0.5]];portConstraint=eastwest;top=0;left=0;right=0;bottom=0;" parent="_ayNkhIyPNn0-OuHJfd8-153" vertex="1">
          <mxGeometry y="60" width="180" height="30" as="geometry" />
        </mxCell>
        <mxCell id="_ayNkhIyPNn0-OuHJfd8-158" value="" style="shape=partialRectangle;connectable=0;fillColor=none;top=0;left=0;bottom=0;right=0;editable=1;overflow=hidden;whiteSpace=wrap;html=1;" parent="_ayNkhIyPNn0-OuHJfd8-157" vertex="1">
          <mxGeometry width="30" height="30" as="geometry">
            <mxRectangle width="30" height="30" as="alternateBounds" />
          </mxGeometry>
        </mxCell>
        <mxCell id="_ayNkhIyPNn0-OuHJfd8-159" value="NomeFantasia" style="shape=partialRectangle;connectable=0;fillColor=none;top=0;left=0;bottom=0;right=0;align=left;spacingLeft=6;overflow=hidden;whiteSpace=wrap;html=1;" parent="_ayNkhIyPNn0-OuHJfd8-157" vertex="1">
          <mxGeometry x="30" width="150" height="30" as="geometry">
            <mxRectangle width="150" height="30" as="alternateBounds" />
          </mxGeometry>
        </mxCell>
        <mxCell id="_ayNkhIyPNn0-OuHJfd8-210" style="shape=tableRow;horizontal=0;startSize=0;swimlaneHead=0;swimlaneBody=0;fillColor=none;collapsible=0;dropTarget=0;points=[[0,0.5],[1,0.5]];portConstraint=eastwest;top=0;left=0;right=0;bottom=0;" parent="_ayNkhIyPNn0-OuHJfd8-153" vertex="1">
          <mxGeometry y="90" width="180" height="30" as="geometry" />
        </mxCell>
        <mxCell id="_ayNkhIyPNn0-OuHJfd8-211" style="shape=partialRectangle;connectable=0;fillColor=none;top=0;left=0;bottom=0;right=0;editable=1;overflow=hidden;whiteSpace=wrap;html=1;" parent="_ayNkhIyPNn0-OuHJfd8-210" vertex="1">
          <mxGeometry width="30" height="30" as="geometry">
            <mxRectangle width="30" height="30" as="alternateBounds" />
          </mxGeometry>
        </mxCell>
        <mxCell id="_ayNkhIyPNn0-OuHJfd8-212" value="Endereco" style="shape=partialRectangle;connectable=0;fillColor=none;top=0;left=0;bottom=0;right=0;align=left;spacingLeft=6;overflow=hidden;whiteSpace=wrap;html=1;" parent="_ayNkhIyPNn0-OuHJfd8-210" vertex="1">
          <mxGeometry x="30" width="150" height="30" as="geometry">
            <mxRectangle width="150" height="30" as="alternateBounds" />
          </mxGeometry>
        </mxCell>
        <mxCell id="_ayNkhIyPNn0-OuHJfd8-207" style="shape=tableRow;horizontal=0;startSize=0;swimlaneHead=0;swimlaneBody=0;fillColor=none;collapsible=0;dropTarget=0;points=[[0,0.5],[1,0.5]];portConstraint=eastwest;top=0;left=0;right=0;bottom=0;" parent="_ayNkhIyPNn0-OuHJfd8-153" vertex="1">
          <mxGeometry y="120" width="180" height="30" as="geometry" />
        </mxCell>
        <mxCell id="_ayNkhIyPNn0-OuHJfd8-208" style="shape=partialRectangle;connectable=0;fillColor=none;top=0;left=0;bottom=0;right=0;editable=1;overflow=hidden;whiteSpace=wrap;html=1;" parent="_ayNkhIyPNn0-OuHJfd8-207" vertex="1">
          <mxGeometry width="30" height="30" as="geometry">
            <mxRectangle width="30" height="30" as="alternateBounds" />
          </mxGeometry>
        </mxCell>
        <mxCell id="_ayNkhIyPNn0-OuHJfd8-209" value="HorarioDeFuncionamento" style="shape=partialRectangle;connectable=0;fillColor=none;top=0;left=0;bottom=0;right=0;align=left;spacingLeft=6;overflow=hidden;whiteSpace=wrap;html=1;" parent="_ayNkhIyPNn0-OuHJfd8-207" vertex="1">
          <mxGeometry x="30" width="150" height="30" as="geometry">
            <mxRectangle width="150" height="30" as="alternateBounds" />
          </mxGeometry>
        </mxCell>
        <mxCell id="_ayNkhIyPNn0-OuHJfd8-204" style="shape=tableRow;horizontal=0;startSize=0;swimlaneHead=0;swimlaneBody=0;fillColor=none;collapsible=0;dropTarget=0;points=[[0,0.5],[1,0.5]];portConstraint=eastwest;top=0;left=0;right=0;bottom=0;" parent="_ayNkhIyPNn0-OuHJfd8-153" vertex="1">
          <mxGeometry y="150" width="180" height="30" as="geometry" />
        </mxCell>
        <mxCell id="_ayNkhIyPNn0-OuHJfd8-205" style="shape=partialRectangle;connectable=0;fillColor=none;top=0;left=0;bottom=0;right=0;editable=1;overflow=hidden;whiteSpace=wrap;html=1;" parent="_ayNkhIyPNn0-OuHJfd8-204" vertex="1">
          <mxGeometry width="30" height="30" as="geometry">
            <mxRectangle width="30" height="30" as="alternateBounds" />
          </mxGeometry>
        </mxCell>
        <mxCell id="_ayNkhIyPNn0-OuHJfd8-206" value="CNPJ" style="shape=partialRectangle;connectable=0;fillColor=none;top=0;left=0;bottom=0;right=0;align=left;spacingLeft=6;overflow=hidden;whiteSpace=wrap;html=1;" parent="_ayNkhIyPNn0-OuHJfd8-204" vertex="1">
          <mxGeometry x="30" width="150" height="30" as="geometry">
            <mxRectangle width="150" height="30" as="alternateBounds" />
          </mxGeometry>
        </mxCell>
        <mxCell id="_ayNkhIyPNn0-OuHJfd8-201" style="shape=tableRow;horizontal=0;startSize=0;swimlaneHead=0;swimlaneBody=0;fillColor=none;collapsible=0;dropTarget=0;points=[[0,0.5],[1,0.5]];portConstraint=eastwest;top=0;left=0;right=0;bottom=0;" parent="_ayNkhIyPNn0-OuHJfd8-153" vertex="1">
          <mxGeometry y="180" width="180" height="30" as="geometry" />
        </mxCell>
        <mxCell id="_ayNkhIyPNn0-OuHJfd8-202" style="shape=partialRectangle;connectable=0;fillColor=none;top=0;left=0;bottom=0;right=0;editable=1;overflow=hidden;whiteSpace=wrap;html=1;" parent="_ayNkhIyPNn0-OuHJfd8-201" vertex="1">
          <mxGeometry width="30" height="30" as="geometry">
            <mxRectangle width="30" height="30" as="alternateBounds" />
          </mxGeometry>
        </mxCell>
        <mxCell id="_ayNkhIyPNn0-OuHJfd8-203" value="RazaoSocial" style="shape=partialRectangle;connectable=0;fillColor=none;top=0;left=0;bottom=0;right=0;align=left;spacingLeft=6;overflow=hidden;whiteSpace=wrap;html=1;" parent="_ayNkhIyPNn0-OuHJfd8-201" vertex="1">
          <mxGeometry x="30" width="150" height="30" as="geometry">
            <mxRectangle width="150" height="30" as="alternateBounds" />
          </mxGeometry>
        </mxCell>
        <mxCell id="_ayNkhIyPNn0-OuHJfd8-166" value="Especialidade" style="shape=table;startSize=30;container=1;collapsible=1;childLayout=tableLayout;fixedRows=1;rowLines=0;fontStyle=1;align=center;resizeLast=1;html=1;" parent="1" vertex="1">
          <mxGeometry x="1460" y="910" width="180" height="90" as="geometry" />
        </mxCell>
        <mxCell id="_ayNkhIyPNn0-OuHJfd8-167" value="" style="shape=tableRow;horizontal=0;startSize=0;swimlaneHead=0;swimlaneBody=0;fillColor=none;collapsible=0;dropTarget=0;points=[[0,0.5],[1,0.5]];portConstraint=eastwest;top=0;left=0;right=0;bottom=1;" parent="_ayNkhIyPNn0-OuHJfd8-166" vertex="1">
          <mxGeometry y="30" width="180" height="30" as="geometry" />
        </mxCell>
        <mxCell id="_ayNkhIyPNn0-OuHJfd8-168" value="PK" style="shape=partialRectangle;connectable=0;fillColor=none;top=0;left=0;bottom=0;right=0;fontStyle=1;overflow=hidden;whiteSpace=wrap;html=1;" parent="_ayNkhIyPNn0-OuHJfd8-167" vertex="1">
          <mxGeometry width="30" height="30" as="geometry">
            <mxRectangle width="30" height="30" as="alternateBounds" />
          </mxGeometry>
        </mxCell>
        <mxCell id="_ayNkhIyPNn0-OuHJfd8-169" value="IdEspecialidade" style="shape=partialRectangle;connectable=0;fillColor=none;top=0;left=0;bottom=0;right=0;align=left;spacingLeft=6;fontStyle=5;overflow=hidden;whiteSpace=wrap;html=1;" parent="_ayNkhIyPNn0-OuHJfd8-167" vertex="1">
          <mxGeometry x="30" width="150" height="30" as="geometry">
            <mxRectangle width="150" height="30" as="alternateBounds" />
          </mxGeometry>
        </mxCell>
        <mxCell id="_ayNkhIyPNn0-OuHJfd8-170" value="" style="shape=tableRow;horizontal=0;startSize=0;swimlaneHead=0;swimlaneBody=0;fillColor=none;collapsible=0;dropTarget=0;points=[[0,0.5],[1,0.5]];portConstraint=eastwest;top=0;left=0;right=0;bottom=0;" parent="_ayNkhIyPNn0-OuHJfd8-166" vertex="1">
          <mxGeometry y="60" width="180" height="30" as="geometry" />
        </mxCell>
        <mxCell id="_ayNkhIyPNn0-OuHJfd8-171" value="" style="shape=partialRectangle;connectable=0;fillColor=none;top=0;left=0;bottom=0;right=0;editable=1;overflow=hidden;whiteSpace=wrap;html=1;" parent="_ayNkhIyPNn0-OuHJfd8-170" vertex="1">
          <mxGeometry width="30" height="30" as="geometry">
            <mxRectangle width="30" height="30" as="alternateBounds" />
          </mxGeometry>
        </mxCell>
        <mxCell id="_ayNkhIyPNn0-OuHJfd8-172" value="NomeEspecialidade" style="shape=partialRectangle;connectable=0;fillColor=none;top=0;left=0;bottom=0;right=0;align=left;spacingLeft=6;overflow=hidden;whiteSpace=wrap;html=1;" parent="_ayNkhIyPNn0-OuHJfd8-170" vertex="1">
          <mxGeometry x="30" width="150" height="30" as="geometry">
            <mxRectangle width="150" height="30" as="alternateBounds" />
          </mxGeometry>
        </mxCell>
        <mxCell id="_ayNkhIyPNn0-OuHJfd8-179" value="Medico" style="shape=table;startSize=30;container=1;collapsible=1;childLayout=tableLayout;fixedRows=1;rowLines=0;fontStyle=1;align=center;resizeLast=1;html=1;whiteSpace=wrap;" parent="1" vertex="1">
          <mxGeometry x="1180" y="790" width="180" height="180" as="geometry" />
        </mxCell>
        <mxCell id="_ayNkhIyPNn0-OuHJfd8-180" value="" style="shape=tableRow;horizontal=0;startSize=0;swimlaneHead=0;swimlaneBody=0;fillColor=none;collapsible=0;dropTarget=0;points=[[0,0.5],[1,0.5]];portConstraint=eastwest;top=0;left=0;right=0;bottom=0;html=1;" parent="_ayNkhIyPNn0-OuHJfd8-179" vertex="1">
          <mxGeometry y="30" width="180" height="30" as="geometry" />
        </mxCell>
        <mxCell id="_ayNkhIyPNn0-OuHJfd8-181" value="PK" style="shape=partialRectangle;connectable=0;fillColor=none;top=0;left=0;bottom=0;right=0;fontStyle=1;overflow=hidden;html=1;whiteSpace=wrap;" parent="_ayNkhIyPNn0-OuHJfd8-180" vertex="1">
          <mxGeometry width="60" height="30" as="geometry">
            <mxRectangle width="60" height="30" as="alternateBounds" />
          </mxGeometry>
        </mxCell>
        <mxCell id="_ayNkhIyPNn0-OuHJfd8-182" value="IdMedico" style="shape=partialRectangle;connectable=0;fillColor=none;top=0;left=0;bottom=0;right=0;align=left;spacingLeft=6;fontStyle=5;overflow=hidden;html=1;whiteSpace=wrap;" parent="_ayNkhIyPNn0-OuHJfd8-180" vertex="1">
          <mxGeometry x="60" width="120" height="30" as="geometry">
            <mxRectangle width="120" height="30" as="alternateBounds" />
          </mxGeometry>
        </mxCell>
        <mxCell id="_ayNkhIyPNn0-OuHJfd8-192" style="shape=tableRow;horizontal=0;startSize=0;swimlaneHead=0;swimlaneBody=0;fillColor=none;collapsible=0;dropTarget=0;points=[[0,0.5],[1,0.5]];portConstraint=eastwest;top=0;left=0;right=0;bottom=0;html=1;" parent="_ayNkhIyPNn0-OuHJfd8-179" vertex="1">
          <mxGeometry y="60" width="180" height="30" as="geometry" />
        </mxCell>
        <mxCell id="_ayNkhIyPNn0-OuHJfd8-193" value="FK1" style="shape=partialRectangle;connectable=0;fillColor=none;top=0;left=0;bottom=0;right=0;fontStyle=1;overflow=hidden;html=1;whiteSpace=wrap;" parent="_ayNkhIyPNn0-OuHJfd8-192" vertex="1">
          <mxGeometry width="60" height="30" as="geometry">
            <mxRectangle width="60" height="30" as="alternateBounds" />
          </mxGeometry>
        </mxCell>
        <mxCell id="_ayNkhIyPNn0-OuHJfd8-194" value="IdEspecialidade" style="shape=partialRectangle;connectable=0;fillColor=none;top=0;left=0;bottom=0;right=0;align=left;spacingLeft=6;fontStyle=5;overflow=hidden;html=1;whiteSpace=wrap;" parent="_ayNkhIyPNn0-OuHJfd8-192" vertex="1">
          <mxGeometry x="60" width="120" height="30" as="geometry">
            <mxRectangle width="120" height="30" as="alternateBounds" />
          </mxGeometry>
        </mxCell>
        <mxCell id="_ayNkhIyPNn0-OuHJfd8-229" style="shape=tableRow;horizontal=0;startSize=0;swimlaneHead=0;swimlaneBody=0;fillColor=none;collapsible=0;dropTarget=0;points=[[0,0.5],[1,0.5]];portConstraint=eastwest;top=0;left=0;right=0;bottom=0;html=1;" parent="_ayNkhIyPNn0-OuHJfd8-179" vertex="1">
          <mxGeometry y="90" width="180" height="30" as="geometry" />
        </mxCell>
        <mxCell id="_ayNkhIyPNn0-OuHJfd8-230" value="FK2" style="shape=partialRectangle;connectable=0;fillColor=none;top=0;left=0;bottom=0;right=0;fontStyle=1;overflow=hidden;html=1;whiteSpace=wrap;" parent="_ayNkhIyPNn0-OuHJfd8-229" vertex="1">
          <mxGeometry width="60" height="30" as="geometry">
            <mxRectangle width="60" height="30" as="alternateBounds" />
          </mxGeometry>
        </mxCell>
        <mxCell id="_ayNkhIyPNn0-OuHJfd8-231" value="IdUsuario" style="shape=partialRectangle;connectable=0;fillColor=none;top=0;left=0;bottom=0;right=0;align=left;spacingLeft=6;fontStyle=5;overflow=hidden;html=1;whiteSpace=wrap;" parent="_ayNkhIyPNn0-OuHJfd8-229" vertex="1">
          <mxGeometry x="60" width="120" height="30" as="geometry">
            <mxRectangle width="120" height="30" as="alternateBounds" />
          </mxGeometry>
        </mxCell>
        <mxCell id="_ayNkhIyPNn0-OuHJfd8-183" value="" style="shape=tableRow;horizontal=0;startSize=0;swimlaneHead=0;swimlaneBody=0;fillColor=none;collapsible=0;dropTarget=0;points=[[0,0.5],[1,0.5]];portConstraint=eastwest;top=0;left=0;right=0;bottom=1;html=1;" parent="_ayNkhIyPNn0-OuHJfd8-179" vertex="1">
          <mxGeometry y="120" width="180" height="30" as="geometry" />
        </mxCell>
        <mxCell id="_ayNkhIyPNn0-OuHJfd8-184" value="FK3" style="shape=partialRectangle;connectable=0;fillColor=none;top=0;left=0;bottom=0;right=0;fontStyle=1;overflow=hidden;html=1;whiteSpace=wrap;" parent="_ayNkhIyPNn0-OuHJfd8-183" vertex="1">
          <mxGeometry width="60" height="30" as="geometry">
            <mxRectangle width="60" height="30" as="alternateBounds" />
          </mxGeometry>
        </mxCell>
        <mxCell id="_ayNkhIyPNn0-OuHJfd8-185" value="IdClinica" style="shape=partialRectangle;connectable=0;fillColor=none;top=0;left=0;bottom=0;right=0;align=left;spacingLeft=6;fontStyle=5;overflow=hidden;html=1;whiteSpace=wrap;" parent="_ayNkhIyPNn0-OuHJfd8-183" vertex="1">
          <mxGeometry x="60" width="120" height="30" as="geometry">
            <mxRectangle width="120" height="30" as="alternateBounds" />
          </mxGeometry>
        </mxCell>
        <mxCell id="_ayNkhIyPNn0-OuHJfd8-186" value="" style="shape=tableRow;horizontal=0;startSize=0;swimlaneHead=0;swimlaneBody=0;fillColor=none;collapsible=0;dropTarget=0;points=[[0,0.5],[1,0.5]];portConstraint=eastwest;top=0;left=0;right=0;bottom=0;html=1;" parent="_ayNkhIyPNn0-OuHJfd8-179" vertex="1">
          <mxGeometry y="150" width="180" height="30" as="geometry" />
        </mxCell>
        <mxCell id="_ayNkhIyPNn0-OuHJfd8-187" value="" style="shape=partialRectangle;connectable=0;fillColor=none;top=0;left=0;bottom=0;right=0;editable=1;overflow=hidden;html=1;whiteSpace=wrap;" parent="_ayNkhIyPNn0-OuHJfd8-186" vertex="1">
          <mxGeometry width="60" height="30" as="geometry">
            <mxRectangle width="60" height="30" as="alternateBounds" />
          </mxGeometry>
        </mxCell>
        <mxCell id="_ayNkhIyPNn0-OuHJfd8-188" value="CRM" style="shape=partialRectangle;connectable=0;fillColor=none;top=0;left=0;bottom=0;right=0;align=left;spacingLeft=6;overflow=hidden;html=1;whiteSpace=wrap;" parent="_ayNkhIyPNn0-OuHJfd8-186" vertex="1">
          <mxGeometry x="60" width="120" height="30" as="geometry">
            <mxRectangle width="120" height="30" as="alternateBounds" />
          </mxGeometry>
        </mxCell>
        <mxCell id="_ayNkhIyPNn0-OuHJfd8-225" value="" style="edgeStyle=entityRelationEdgeStyle;fontSize=12;html=1;endArrow=ERoneToMany;rounded=0;entryX=1;entryY=0.5;entryDx=0;entryDy=0;exitX=0;exitY=0.5;exitDx=0;exitDy=0;" parent="1" source="_ayNkhIyPNn0-OuHJfd8-167" target="_ayNkhIyPNn0-OuHJfd8-192" edge="1">
          <mxGeometry width="100" height="100" relative="1" as="geometry">
            <mxPoint x="1900" y="790" as="sourcePoint" />
            <mxPoint x="2000" y="690" as="targetPoint" />
          </mxGeometry>
        </mxCell>
        <mxCell id="_ayNkhIyPNn0-OuHJfd8-226" value="" style="edgeStyle=entityRelationEdgeStyle;fontSize=12;html=1;endArrow=ERoneToMany;rounded=0;exitX=0;exitY=0.5;exitDx=0;exitDy=0;entryX=1;entryY=0.5;entryDx=0;entryDy=0;" parent="1" source="_ayNkhIyPNn0-OuHJfd8-154" target="_ayNkhIyPNn0-OuHJfd8-183" edge="1">
          <mxGeometry width="100" height="100" relative="1" as="geometry">
            <mxPoint x="1950" y="790" as="sourcePoint" />
            <mxPoint x="2280" y="760" as="targetPoint" />
          </mxGeometry>
        </mxCell>
        <mxCell id="_ayNkhIyPNn0-OuHJfd8-228" value="1" style="text;html=1;strokeColor=none;fillColor=none;align=center;verticalAlign=middle;whiteSpace=wrap;rounded=0;" parent="1" vertex="1">
          <mxGeometry x="230" y="230" width="60" height="30" as="geometry" />
        </mxCell>
        <mxCell id="_ayNkhIyPNn0-OuHJfd8-234" value="" style="edgeStyle=entityRelationEdgeStyle;fontSize=12;html=1;endArrow=ERmandOne;startArrow=ERmandOne;rounded=0;exitX=1;exitY=0.5;exitDx=0;exitDy=0;entryX=1;entryY=0.5;entryDx=0;entryDy=0;" parent="1" source="_ayNkhIyPNn0-OuHJfd8-70" target="_ayNkhIyPNn0-OuHJfd8-229" edge="1">
          <mxGeometry width="100" height="100" relative="1" as="geometry">
            <mxPoint x="1630" y="740" as="sourcePoint" />
            <mxPoint x="1730" y="640" as="targetPoint" />
          </mxGeometry>
        </mxCell>
        <mxCell id="_ayNkhIyPNn0-OuHJfd8-235" value="" style="edgeStyle=entityRelationEdgeStyle;fontSize=12;html=1;endArrow=ERoneToMany;rounded=0;entryX=0;entryY=0.5;entryDx=0;entryDy=0;exitX=1;exitY=0.25;exitDx=0;exitDy=0;" parent="1" source="_ayNkhIyPNn0-OuHJfd8-179" target="_ayNkhIyPNn0-OuHJfd8-144" edge="1">
          <mxGeometry width="100" height="100" relative="1" as="geometry">
            <mxPoint x="840" y="570" as="sourcePoint" />
            <mxPoint x="940" y="470" as="targetPoint" />
          </mxGeometry>
        </mxCell>
        <mxCell id="_ayNkhIyPNn0-OuHJfd8-236" value="" style="edgeStyle=entityRelationEdgeStyle;fontSize=12;html=1;endArrow=ERoneToMany;rounded=0;entryX=0;entryY=0.5;entryDx=0;entryDy=0;exitX=1;exitY=0.5;exitDx=0;exitDy=0;" parent="1" source="_ayNkhIyPNn0-OuHJfd8-107" target="_ayNkhIyPNn0-OuHJfd8-195" edge="1">
          <mxGeometry width="100" height="100" relative="1" as="geometry">
            <mxPoint x="840" y="570" as="sourcePoint" />
            <mxPoint x="940" y="470" as="targetPoint" />
          </mxGeometry>
        </mxCell>
        <mxCell id="_ayNkhIyPNn0-OuHJfd8-237" value="" style="edgeStyle=entityRelationEdgeStyle;fontSize=12;html=1;endArrow=ERoneToMany;rounded=0;entryX=0;entryY=0.5;entryDx=0;entryDy=0;exitX=1;exitY=0.5;exitDx=0;exitDy=0;" parent="1" source="_ayNkhIyPNn0-OuHJfd8-107" target="_ayNkhIyPNn0-OuHJfd8-133" edge="1">
          <mxGeometry width="100" height="100" relative="1" as="geometry">
            <mxPoint x="1590" y="620" as="sourcePoint" />
            <mxPoint x="1690" y="520" as="targetPoint" />
          </mxGeometry>
        </mxCell>
        <mxCell id="_ayNkhIyPNn0-OuHJfd8-238" value="" style="edgeStyle=entityRelationEdgeStyle;fontSize=12;html=1;endArrow=ERoneToMany;rounded=0;entryX=0;entryY=0.5;entryDx=0;entryDy=0;exitX=1;exitY=0.5;exitDx=0;exitDy=0;" parent="1" source="_ayNkhIyPNn0-OuHJfd8-141" target="_ayNkhIyPNn0-OuHJfd8-124" edge="1">
          <mxGeometry width="100" height="100" relative="1" as="geometry">
            <mxPoint x="1590" y="620" as="sourcePoint" />
            <mxPoint x="1690" y="520" as="targetPoint" />
          </mxGeometry>
        </mxCell>
        <mxCell id="wXEADglzX_RcnhATfGNt-2" value="" style="shape=image;verticalLabelPosition=bottom;labelBackgroundColor=default;verticalAlign=top;aspect=fixed;imageAspect=0;image=data:image/png,iVBORw0KGgoAAAANSUhEUgAAAl0AAAA6CAYAAACK7OzgAAAAAXNSR0IArs4c6QAAAARnQU1BAACxjwv8YQUAAAAJcEhZcwAAEnQAABJ0Ad5mH3gAAAv5SURBVHhe7dw/jlzHEQbwXd9ECpisTkDmEgGFPoGSvQAVOPMFBOeb+QDMDALUAXyETRjoKmsUPR9QLFZ1V/+d92a/H1CYed3V1f163gwbIqH7jx8/vrx58+aO+nz58uXu7du3lytq9fnz57v3799frqgV928M928M928M92/MGffv/ocPP79c3tOA/3749+Udtfj06dPdr7/+ermiVty/Mdy/Mdy/Mdy/MWfcPx66JvnHm79f3hERERF97+uh668//rxcUqsff//l6yv3sM/z8/Pdw8PD5Ypacf/GcP/GcP/GcP/GnHH//nZ5JSIiIqKFeOgiIiIi2oCHLiIiIqINwkPX/f395V1ZlCftOizd5vWXtOZfQ7TGo61d1lOK2bI17TpszDCrzhGV7u3a990zv4wpxSqZeVradS0dJbX+I7L3hziLo6z9CGuY5ezrn2X6f+nCw/Hy8vJNlB4a6W/Rmn8tZ3nI9Odk45q89SDovHo/P/sM6Jit9Xes5btua6LurTnrfcoar712mctbB9rPSNZPi/560dtcbjgRncnO3zGpe9Y/TFsc/T5x0PHsXru3jmhtdB7Nhy556BBW6YEV0UOr2/BeXhFW1FbKt7FDy5e0tDa0ef3RGEB/KSdD1/Hq4brUb3NmsDVLdUdz0Ob1o822a7WcWv9qpfnRZvtxrUPDte6zOQL9Xl9WNFa3431pLmlv/R1r+a7T9/B56NC8fgmt1g+1/hLvucjUy+SA5LQ+f6X6aItyvDHCy/PGC7RlcrRS/q1qOnTJxsgHjujZqNLDBK3zlPJtn5dzbaX1g85Bv9em6f4oJ8PWieqV5kObfT9DaV5YkQMzamdqrJSZX+fYax12rB1n2Tp2/Gy19WSMjKVv2c8foZ8Dr1/L1BA2z/Z7bSW1eiKT00rqwI41rJijNf9WpA9d2CDNXs/izRN9ING6kL9qjVmltYva+kHnoN9rg2xdIW1egK0Tyc6XZdeDsGrzynsvR4ty7Hw942o5mRo9ZLwXlrRl5vdyMkp52bmFtHnRKrvuVtG6M2TcqnUdiXefPfdt62RqRHPbzwxtNixpq9XL5IzI1i/lePm67ow5rGzNW7Tk33Qdgf1AKSZ75cW1eWuSuBWr78XuG+KsvHuROBv5g8XGGe+jZtV9zqpTgmdLh8w7i9Sj1+lmD12a/tIjdpr9hc2y9zyyhpm1jqr3HnvH3YLXfO+ezHcdf4jruEXefUZ7o58fhEfapY7HjpeYqbT+s9P3Jq92j7GfOqjP9kPX7g9L5pMHyMZr4N23RKvXsofePUrUeGMkbt1r/m6t+h3b/fu4mzwf9h5nPEev7Vnc/Zx4eytB7aYeuuRDKD0M+GLssPuhrKntzS5H25ej692vzDh+Fsc0+jt2lO/6rant+wy7PrfSPKPPXy/Mm629a69uTfrQ5T0I0aZ77as+oGhdKx7KFVat/+z7MlO0F1rvfmXG1XIyNVa65vwz545q9fLGjtSjfr3PhJZ51rwcyOT25ETsOGHbRupnrZhjx7qPqum/dGGjEN4GSZvNQ66XP4OdT8/jrQU58rpTdP+l9Y+YVdfW0fXktUXLGD2XjVaZvcjkeGbUztRYqWd+O0aPldesnrkjs2rJOFsL9TI1R+b15rwluEfw7lnC5tl+3ZetYfPk2irVsnrqeTmW5NhxGGvH2zzbP8OKOXas+4jCQ1e0AdKOwLVH53k5ui16r9VypA1h6T6dg9cVotqldoQ12obwRO2WroNAu361vPYoV5OcUoB+r3ntdnwmR/PaoDQOajm1/halGj3zZ8Yg0K5ftagN4YnaPbaWHttSR+ha0diW9ihXw1yIM6qt2/br+0WgHa9eaFE/XsH2e3ROS24kk+PR40pjSznRuJZcgfot43R7NA7xWmz/h/S35q8//vwaRERERCU8dHX68fdfvgsiIiKiCA9dRERERBvc//Dh59fzl6mTyF8nev9l6z+//evyjoiIiOhbPHR1iA5d/Ldd7Z6fn+8eHh4uV9SK+zdG9u+njz9drr738k/+PJbw+RvD/Xt97p+enl4eHx8vl5TFQ9cc/NEZw/0bUzp08cBVx+dvDPfv9eG/6eokBywJ+StFvCei28ADFxGtwEMXEZHCAxcRrcJDV4X8n3JH6P/jrldLt3n9Ja3519KzThnjxVHtXF9tHqzFi5pMbiZnh8w6MjmaPXDVxmXqZ3I0m6fH27CyfTasUh+U+oSugVhhVt2j1YFSPd03e15ag4eugDzAIw8xxuv/465EqW7r/5W3Nf9s9L4hRj6TVfTnfAR6v3TU2OfV2+tMzg4r1qoPXJJby8/Uz+RoUb+uoUOrzaX7dFiZNSMnYmsgvFqjpC5xH86Ch64AfiRGeOP5xRgj+7fih5vOw/sD3z4XmRzN/hcuybXjtRVrGDFrrkwdL0cr9fes6TXDXnLPbgcPXQvUfpSiL5Fuw3t5RVhRWynfRgn6a/m6v5Qn0FfLa4FaOjRc6z6vTeBaR0T32/ce3W7HRWNEJqdGxtpnUtfz+u1zmsnxSL8Nq9a/0lH+DZfct93fUbV6K+as8ebLfPZRjjcmytVqObo/mxfJ5IyytfWcCA3XUb/QfToi6Kvl6n4vD9dRn27X/TYXvHbUiMaswkPXlWR+6ORhkDxE7eEo5ds+L8dTqil66uoxrTAWsvN7c9q2bC1Av32fZefz5snk9JJ6q9n1I/R9eDml+5T+mkzOiN414F6tqF2THEQkk1Mia7Bj5Tpzv+DVKEF9hDc2kwMz6tn+bJ7tF5kcD8aJlnHCzomwNWye7dd9iJpaTdufyYNa7axZdXrw0HVg8jBopYcDD5Gm821fVm0NPXWzY2QeG956Mry83lqzePPLPcLI/WpenV16520dl7nH1fsQ1Zd2RO/8GIuQayuTo0XrwViEl1NjayAsabP1MRYyOTBST7PXnkydzHpWyKxftK7Nux+rVrM2HmxetJetojql+56Jh64b1/NQHoWs3cauLwadh/cjamVyRpTq49mV8J7fzNpsv1crk5OB9SC8eTJ1dQ1Ez3oiUu9W4TPQZu9fK29N1I6HrldEvjQ2ZlhV1+P98Ni5bX+LmbXo/2p7is806i+R3NofBJmcES317fObGbty7Za3Hrtm4bVl9I5rIfVt9DhanVYz55WxM59Duy6Jna45Pw9dV7LzQxYyn3xpbIxaVTdr5vzXvpcVcE/Xkt1T2y/jajL3tvr+S/Uz9yAkTwfaQL+fRWqO7svKfR0h6/KiBfZnpAZ4dSQi+hmwgfYayWmZc6cjrM2bX2IHHroWkA+v9MXAQ7dD5gtK5D2z9jnN5OySmXf12mbUl/E20H5U9hmwav2ztMyza01ZtfXYZ0LHbrLWa8y7265nhIeuhbwPcdUHK18KW3vGl2VFzRHXnj8j+ixazapzdK33JPm1ZyCTMyJTP/r8WteVqXPtubRSf6ZWTw6M1GuVqZNZj1bqA6/mKpn1WC3328K7b3s9kjNjjRk8dC0iHyA+XB1oX8HOp+fx1oIceY2Uaoreuhm2psTK+VfWkuses+p4pJ6Wmat1PTZfj5PXKKdW1+YjNK9fYhavtoRm7612X5FMnWvMFbE1EKVaozkwo57t13nyCrU6IpMzm51Tzy2vLWyN2vja/Y6srVZbzMpZhYeuitEPQ8brsHRb9F6r5UgbwtJ9OgevEZtv6X6dZ1+Ffl+COjY8UZ591bw2gfE60B6J+ko1SmMs1EBfNNZTyvX6ME9tXC1H0/l6HF6F1x+xuTrA60O0iPJtTR1Wqc8T5WXqZHJEpr9Wp6UGIjKS442JcjWbY3N1PwLtWq1f2JxIrR+Qp/PtWLm2gXb9aul2jLNRU8vV/TrPvnrsGI/N8XJtzi48dBERERFtwEMXERER0QY8dBERERFtcP/09PTy7t27yyURERERrfD10PX4+Hi5pFbPz893Dw8Plytqxf0bw/0bw/0bw/0bw/0bc8b9418vEhEREW3AQxcRERHRBjx0EREREW3AQxcRERHRBjx0EREREW3AQxcRERHRBjx0EREREW3AQxcRERHRBjx0EREREW3AQxcRERHRBjx0EREREW3AQxcRERHRcnd3/wNKuUkqkAhutQAAAABJRU5ErkJggg==;" vertex="1" parent="1">
          <mxGeometry x="-660" y="792" width="605" height="58" as="geometry" />
        </mxCell>
        <mxCell id="wXEADglzX_RcnhATfGNt-3" value="" style="shape=image;verticalLabelPosition=bottom;labelBackgroundColor=default;verticalAlign=top;aspect=fixed;imageAspect=0;image=data:image/png,iVBORw0KGgoAAAANSUhEUgAAAdgAAAAyCAYAAAD/ccrJAAAAAXNSR0IArs4c6QAAAARnQU1BAACxjwv8YQUAAAAJcEhZcwAAEnQAABJ0Ad5mH3gAAAb/SURBVHhe7dzNrRs3EMBxKcW8izrwa8CAj2kgJzWQS0rIxQUIBow0kKMBNxB3oMtrRsEYO8hkMPxakvtW0v8HEG+XHA4pirt8dgIfv379evv48eMB63z//v3A+q3348ePw8vLy3KHVm9vb4cPHz4sd2jF89uH9cs7fvny5fbp06flFq2+fft2YP3We/3823KFtf75/a/lCq14fvuwfnnHy+VyW66Bzf359vdyhbX+ePl1uQKwJz8P2PP5vNyi1fV6PZxOp+UOrVi/PqxfH9avD+uX98vyEwAADMQBCwDABBywAABMkDxgj8fjcpWXipN6W+5Rz7xr+/o4XS9fRpuRU4zKW5snFSf1tuyZn9+I+drPbsue7G0+wGjD/wSrD/Ltdvtf2eMDvld+7XT9RpKcj4j99x+/BntbB5kP8Mim/BVx9ODwMPXRlyPK2H9prAOwneYDVn8Djl72Upd7gKNDopRPf/r2VB+l7VGM1qVibJ1v13tfX6unr2Xz5PKl2qP4VKzQulSMrcu1+/pWuTxSN3P/RTHCtvuYXB/P9rfXQu9tWStaB1HKbdtrYiy9t20+Rmh7qS0VI0rtwFaaDljZsPJwalmzgaWfqslnY7Q9qrNs+5oYrfPXvo/W16qZV41oHlG+lvFqYnMxWuevRU3uGiPySD9Vk68U49ujmFra319HY0hZO07Ej+FzR3MoxeTaI7n+vi2KEbkcwNaqD1jduJa/b5HK5x8IG6PtUZ1ak1dEMZ7v0yI1r1q2f02/2nUQtbG1+ayWeeSk8qxVO6+aGK9nXpHR+bzatfBsn5ocvt0q9c/1VTVzALY05b/Boo+8EHypecHUGJUHqNG739ivuGcPecBGB9Qos/Ja8lLxxfPz6J3L6HzWzNzvTb6bLT6bH2P0OKX8W33OHD/+e8wBaLH5AbvFQ2EPJlt6ydxH51wjmkfvXKJ8UkaI8kp5DzP2n/9co8eY8X17UX4plm+bsZYpW6wBMNrQA1Y2fO6h04fkPWz5MtizlnWYuWYzcu95/+1J7TqM+I56c4yYA/Beqg/Y6OWV2vxRva9L5et9Ac7K26tl/UZoWYeZazYqdypPJKr3daPmlZqDapn3FqKxa9aiNOfe9eztL0bkAEZq+hOsbmAt0caVOh+nsT7ex/n2tUbl1TzK57VtNUbPy5fSfHPjtcTm+DmI0blzeaTOx2msj/dxvr1GaiyrdRyNV9EYUkp5Un2ifn4MH+Pba2J8e0muv2+zMfJT5XIAW0sesKmNKfVa9D5i41IxIhfTW6fFi+pETazm1JKSavN9fVyqn2fzaNF6y7crfy9SsSKqE7WxmjeVx0vF+Tw1cakYkYtJ9fP1Nkeuj223cVEfX6d9bcmJ4qXklOJse02MFcWn6qL+wrbZGP2pfDvwXjb/n5wAAHgGHLAAAEzAAQsAwATHy+Vye319XW4BAMAIPw/Y8/m83KLV9Xo9nE6n5Q6tWL8+rB+wX/wVMQAAE3DAAgAwAQcsAAATcMBm2H8RBuuwdn1618/u4Vwu35aLfRT2M97r593b97anddzDXDhgE+TLsf8izJ42zj2Q9WLN1utdP+1v97Du45q8EvtM7vXzPtv3dG84YAP6YrL05YQ6sl48/OuNWL+oP98JsB0OWODBRL8gWtKmvyzKz9S1itpVVGdpey5GaUwUX8qh7WtjUnWpeFFqtzQmik/liOqErddrm8NeK63z9Tk1fXIxqX6p2FweXyKldlETMxIHbIDf8vEsZK/rfrfXnryQtF1fTlGdZdtTMV6UM6qzbHtPjFWKb80nbB+Nj+rW0Bz+WtgxpNSMU9NnTd5ILo9vi2JELoeqiRmNA7aSfjnAM7J7X19OUZ2KnhcfE4lyRnWqZpxUTEopZ82YEdtH46O6kdbMtaZPKqZVaayanDVzKY0zCwdshejLAfBceAds51HWmgO2gMMV2Dd5Rn1Bnz2t6Z7m0ooDNkO+SA5XYN/kGY0K1ovWU8rW9B383vNYiwM2gcMV90r2be63/GfY27nPv9aMnPdky8//KGvNARt4hhcQHl/0ktrqxRUd8jOeq5pxUjEppZw1Y47QOu/ImrnW9KmZW0+MHatkq3HW4IBNkMWPCnAP5MWhLxVbtN7T2JH8+NG4I9SM0zqXUnxrvrVax9F4a81ca/psEePbbIz8VLkcqiZmNA7YgCx8qqANa9and/3s3i3lsu2pa9VSp6WkJaenY0RtysfY2Kifj/dK7VYU01KnRe9VKt7T/lFbSk0fHxPFromxbJuN0Z+q1C58zGwcsAAATMABCwDABBywAABMcLxcLrfX19flFgAAjPDzgD2fz8stWl2v18PpdFru0Ir168P69WH9+rB+efwVMQAAE3DAAgAwAQcsAAATcMACADDc4fAvoXWH6+YBsDoAAAAASUVORK5CYII=;" vertex="1" parent="1">
          <mxGeometry x="-413" y="1210" width="472" height="50" as="geometry" />
        </mxCell>
        <mxCell id="wXEADglzX_RcnhATfGNt-4" value="" style="shape=image;verticalLabelPosition=bottom;labelBackgroundColor=default;verticalAlign=top;aspect=fixed;imageAspect=0;image=data:image/png,iVBORw0KGgoAAAANSUhEUgAABO0AAABQCAYAAABFwIGmAAAAAXNSR0IArs4c6QAAAARnQU1BAACxjwv8YQUAAAAJcEhZcwAAEnQAABJ0Ad5mH3gAABGXSURBVHhe7d1PsiQ3bsDhV77JzMKbdwPtNbPQ0ifwGTQLH2LCZ/AdHFpMaO0LKPpttJibKNqG5sHCQCAJEsyqrKzfF8HIShJEMlF/IpLqbt1++umnr29Y8vPPP7998803n2eY9eOPP759++23n2eYRf1qqF8N9auhfjXUr4b61VC/GupXQ/1qqF8N9auhfjWvWr9/+TwCd/fLL798vsIK6ldD/WqoXw31q6F+NdSvhvrVUL8a6ldD/WqoXw31q3nV+t3+8P2f+JN2Rf/z/X99vsKMH3744e277777PMMs6ldD/WqoXw31q6F+NdSvhvrVUL8a6ldD/WqoXw31q3nV+rFpt8F//Ou/fb4CAAAAAAAA6m5f/8/na0z641/+/Ovx73/9269HzPn4+Hh7f3//PMMs6ldD/WqoXw31q6F+NdSvhvrVUL8a6ldD/WqoXw31q3nV+vFv2gEAAAAAAAAnw6YdAAAAAAAAcDJs2gEAAAAAAAAnE27a3W63z1d9rTjpt+3M/Pp2rDebI7p21HY7IqfYlTebx8eN5u28b5trZ94dZD1Rq6jOfya9e310HZ7hfZA1Ru2e7nm9e98bAAAAgNex9U/a6cOZ/L8tbNN+jPnaaf12kpzY54z1tJ8fbXwPn5+8j8/Af/akXfWzJ/cGAAAAAEfY/tdjowcYHmpqrvzAu1urTtSP7yEei98xAAAAAJgztWknD1zaPOnrbQpED2yjfHpsxQg77mN6czw7374Wem7biup8ZfP08rXGo/hWrNC+Vozt6437/lm78niZvL2YVl8rXozGjzL6HmpT9rw1Ztur6tVA+/y4nttm6bkd8zFCx6Oxs7L349etfb5faF8rxvb51xHfr3Nss/TcjvkYoePRGAAAAABkpTft5OFDHvi1rTyMyDyVyTeK8eNRTJbO96+ja+jYjNG9ZLXW4/PNXC8T24vRPv9aZHJnZPNEYzo3ksmbibFG8bP5juTX4tek5/71aN4r8bWIamBj/Lltfq6f5/k8fv6ZRfeWuZ9ejPb51xk+rza/BhsX6a0PAAAAAGakNu30IcRqPbBktPL5h5tMjFdZV2RHvmr97PzMvGx9RTY2m8+aWUdPK09VZn2z1x7lzFzznnr30rM671nI+xE1T/oy72cUk9GLy177LPx6/dortdxxzz5vSy8uew8AAAAAkLH937RDjTzc+ZZ9mBzZlefs7EPyzvpVvErtr0Ler6ghx/5+aaN+AAAAADDnqTft5CHQPxgewV/jqOsIu0Ggzdu9nt35rCNz73D29d3Dag1W5+Efrly/zO/YGV35PQEAAADwfO66aXfEA5B/MNx9DcnnryHtUY5YT5RP2g5RXmlHk2torXrsmmx7Faufp7N9L54N9Tsf3hMAAAAAZ7Nt004ebuShp0UfiPA4vffHm4mddWTuHY5Y31nuWdbB9xAAAAAAgPNLbdpFG3KtTYio3/e18s1uJrTWoGbWfaR7r2OmvjOxs3blbuUZGV0ns77Za49yZq55lN66seaR7+cjr32EI++nlXu3q70nAAAAAB4r/Sft9GFEW/QQIn0+TmN9vI/z4xmta1mz19F4FV3DjmfNrqOltZ7RunvXm4nt8WsQu3NX83iZvLPXHsXP5lth89vrjNZiY+WoWue++bhX4Gsh5yO76rdy7TPbdT9RHUe5/biNk2PW6DoAAAAAkBVu2rUeMqRfm55HbFwrRvRiWvN8v83Rm2PHbVw0x/fpXNt6WuN+vo9rzfNsHm3ab/lx5c9FK1ZEfSIbq3lbebxWnM/j41rzVGtcc/bm+xgbG83z8d5ovMLmtq2lFatHFZ37pv3PrLf+1pjefzSemaNN++3RavVpO4PMOnoxvftpzcvGal4d8zF2XJv226PV6tMGAAAAAKvu+j+iuJq///VvvzYAAAAAAABgJzbtFvzxL3/+XQMAAAAAAAB2YdMOAAAAAAAAOJnbH77/E//ozgT567DRn6z773//z89XAAAAAAAAQA2bdpNam3b823bzPj4+3t7f3z/PMIv61VC/GupXQ/1qqF8N9auhfjXUr4b61VC/GupXQ/1qXrV+t6/87+2msWm3Bz9aNdSvhvrVUL8a6ldD/WqoXw31q6F+NdSvhvrVUL8a6lfzqvXj37RbIBt00uSvxOprAAAAAAAAYBc27QAAAAAAAICTYdOu43a7fb7CCupXU6mfzNXWko2xsnNGMc+gtX57f76NZGIzMQAAAACA62PTLsADcw31q6nWT+bKP1WpLcqVifGOyns2subeuu392TaSqU0mBgAAAADwGti0C+gDM9ZQv5pK/XTTx5Lze2z+PPLaO8ma/X0AAAAAAHBvbNoBL2Zlc+0qG3JHiepja5OpXyYGAAAAAPA62LQDLsRv+lREm0g90QbTbI4redX7BgAAAADswaYdcHH33DjTjTttr7Bx9cobkwAAAACA47BpB1zYvTeU9Hra5BwAAAAAAMxj0w64qEdt2Fls3AEAAAAAsIZNO+CCqht2997we1bUCQAAAABwFDbtgIsZbSRFf/rtiDn4TaZ+1BgAAAAAYLFpB1zIIzd52HQCAAAAAGAfNu2Ai5GNsqhZusGmLbOxlpmzkveq5P4t6gcAAAAAmMGmXQcPzDXUr2alfjKn1bzWWG+zqDXHysQ8g8z6R3XwtC6jeaMYAAAAAMD1sWkH4J+wWQQAAAAAwOOxaQcAAAAAAACcDJt2AAAAAAAAwMncvnz5wt+FAwAAAAAAAE7k9pV/wGrZx8fH2/v7++cZZlG/GupXQ/1qqB8AAAAAHIu/HgsAAAAAAACcDJt2AAAAAAAAwMmwaQcAAAAAAACcDJt2Dbfb7f8b1lC7mmr9Zua3Yn2/nGtrycQ8g5n1Z2MztcnEnJldv227HZFTHJV3xhnW8GpszfkMrNm1ZsmzI9cja/iM79+jUbM9qnXkfdjL1pPa/t6OmrxyXa9+73J/2lbZuc9cLzbtAvKGyv+fQ9szv8GPIPWiZuuq9Zudn42VuNH3IhNzdrLmmXVnYzO1ycQ8A3sPR92L5LyqK9/bM6D+j2N/AwHM47tzXrw3QN4Rz0TP/B1k087RD4i164PyKvTLhTXV+j2q/lf57jyqflf3jJ8FAAAAAPfDfszvsWkHvLDoRzHCj2esVz9bm0z9MjFXIvflW6Q1HsW3YoX2tWJsX2/c93ut8Zl8rb5WvKcxozl2PIrTcz+m57ZlzMRrTBQ/yqHjqzGtvla8GI17Nj47LxPrY3ysHddm6Xlr3NoVI2xMFK99vl9on43xfZaP8ex4K8bLxPditC8a1z7fr+x4K0bp+CjejvfivF68HWvFiNG4qMbYsVaMpeOjeDveiquOi954a46yc7WN+Fg7pzU/ipGjtogdb8UoHY9itc/3C+2LxltzlI6vxrT6WvHCjrdilI6P4u14FKfnfkzPbcs4Kt7GRPHa5/uF9kXjrTlCx2yz9Dwaa+nN0b5Wv3+ttM/3C+2z475Pzz07HsXpuR/Tc9tWtJ65rN41fJ+N1eaNxu+FTTsn+jDIG5T5kADPZPS5nv3cS6z/Mbvyd2d0b1e97x20dr61Pj+tcSsT24vRPv9aZHLPmM23cv3RHD+eifPntvl5np83ihd2jsZHfZYdr8RYo/hqvsy8zDVGMX48G+fHxa4YpTH+tVi5ljRhX4tRrihPdD1rlFPMxqjRPD8exXgrOaM4r5c3m7OXQ1Vj/FgUE+nlFJm8UczMuPAxfrwnyj/KUbmeNcrjx6MYz85Ro+sIG6PjUZ9lxysx1ijej0cx3krOUZw/t83P8/y8nfEa41+LTB4bo+NRn7JjtvXisqI5/nr2OjbWvha9eWr2esKPZ+L8uW1+XkRitGX4a/Xm+dhoThTTy3kkNu0a5A3RJm8QgDH9MeO7A89+HjKfi+jzo58vLxubzWfNrENEYzbHbL7ZeDWa48dbojyzdtyDxkd9KnOdVkzLKGfmml7vepHMNVoxVva6O66VWXNGNo+PiayuqZe7ldNavYcj1itGOUfzI6O1ZnP2cojRdcSutXij6+7K69nxzP33zK6xdb0VK+seXcuPZ+tjY3Q86lOZvK2YlkzOSC+nGOUczVdRnlmz97haEy+bx8boeNSn7FhPNs7yc7L34GXn+RgxmhfNiUR5Vui9aFu995beWM/qvCo27RrkDdE2+pAAzyb6Ydth9gf2WR1Vv6uQ+vi2q17UHWfA5xAYO9P3hO8sADwP/5st5/I88arYtEt49Q8JrmXnBooV5b3id+eo+l2J1Mc3T+roW8XufNZsbrlfjZGjv3+bR9sjrK5jdd49nHlt1uw6Z+NbduV5VqP71+9ua/ze/Fr8eo5ar8+5I++unDvy7MgRGeUdvV+Z99OPRzE91flH2fVZ9jlW83hH5e052/d7Zd7snNn4e7vn+u55razVNa3OO9poXUd9B1ewaec88s0A7iX6AbKffXktP1SI2dpp3fSIMamVfL58q4jySdshyittVZRL2j2tvgdHvHc7RWuTdiYrNYzipc04+3t3D9H9S7P8mNTtUfxatFl+rLreIz4nO3NGeaRlHfU9yOb14/79mh3XlnHUve/i1+XvPcPn0FYV5ZR2NH+9lZpYq5+B1XnRHGktUay0M7j39ye6lrRHufdn52jZdflxmfcIbNoBL8b/+EjT/hYZ8z9S+mP3arRmtml/i4yN6peJwT9qkjUTO2uUW9/P7Pt35Fpf3RG1PcP7xWdmj2er4zOt915rzVznyt+XK9/bDkfVh7qvma0bdf4NtXhdbNo5PDgDa/juYKeZz9ORn73duWfzrV5/Zc5RVu9hVuY6rZiWUc7MNasy12jFHCFzrcyaM3blEZlcfnykldNavYcj1nuU1Xv0Rjky19m1Fm9HTp/DG40fdW8tretZmZiMlTneUfXJ5J2tQyZnb37LKOc9Ze7Rmo1v2ZXnkVbv4Qr3LlbuozWnojp/JzbtAvqma3u2DzpwhMz3gu/Ob+T+Ler3G3+f9n7lqGbqMRPb49cgduVWs/lWrj+a48dtnBxbds2T8yNkrjO7llF8NZ+dJ8dI5hqjGD9u4+Q4Y3QtkYnJWM2j86xRLj8exXijnCITExnN8+NRzKwop+aVY4ufZ9eRzdnLoaoxfszGyLGll1Nk8kYxNs9oXPgYP94T5dcccoxkrpeJGfE5duVZyRHJ5J299ijej0cx3kpOjZNjy655ct4zGy+iNazkGfE5bW459ozGI5l7iK6dmbfC57X55diya56cj8zM8bF2jhxbMb2cR2LTrkHeEG1YQ+1qqvWbmW9jez9I0q+tJRPzDGbWH8W2+rS1ZGLOLLtue5/atN/y48qfi1asiPpENlbztvJEerG9fK2+VnzLaI4dt3H+6Nl4bdrf4+N7opiZPm0tPsbGRvN8vDca92y8neePlo+NjGLsuI3zRy/q1/m9uT5mpBXXy9PL3Ypv5RJ2vBXj+fhono+xoj7VmyfseCtG9XJYNp827e/x8ZYdszHR0Y5HqjF2zMboscXHe3bcxulRROPWaFz0xltzlJ2rTfvt0fKxER9jY1vzfL/O19bTG+/lqPZpa/ExNjaa5+M9O96K8UbxdtzG+aNn47Vpf4+Pt1p9rfiW2TyrfZrPNu23R2u00TMa09YSjfXmZfuE79ectmm/PXo2Xpv29/j4DD/HzvV5bKw27VfR+COwaQfgnzzyBwkAAAAAroDnKuzAph0AAMDFPPKvcQC4Jn5XAOD+2LQDAAB4cvIwbRsP1gCq+F0BgMe7ffnyhV9fAAAAAAAA4ERuX/lPJss+Pj7e3t/fP88wi/rVUL8a6ldD/WqoXw31q6F+NdSvhvrVUL8a6ldD/WqoX82r1o+/HgsAAAAAAACcDJt2AAAAAAAAwMmwaQcAAAAAAACcDJt2AAAAAAAAwMmwaQcAAAAAAACcDJt2AAAAAAAAwMmwaQcAAAAAAACcDJt2AAAAAAAAwMmwaQcAAAAAAACcDJt2AAAAAAAAwMmwaQcAAAAAAACcDJt2AAAAAAAAwKm8vf0v7d6X4JXXZXMAAAAASUVORK5CYII=;" vertex="1" parent="1">
          <mxGeometry x="-671" y="1075" width="1261" height="80" as="geometry" />
        </mxCell>
        <mxCell id="wXEADglzX_RcnhATfGNt-5" value="" style="shape=image;verticalLabelPosition=bottom;labelBackgroundColor=default;verticalAlign=top;aspect=fixed;imageAspect=0;image=data:image/png,iVBORw0KGgoAAAANSUhEUgAAAOsAAABfCAYAAAAJUTC2AAAAAXNSR0IArs4c6QAAAARnQU1BAACxjwv8YQUAAAAJcEhZcwAAEnQAABJ0Ad5mH3gAAAc0SURBVHhe7dw/rhtHDAZwKTdJijQ+gVsXSeEyJ8gZnCKHCHKG3CF4RZrX5QKGXRnITQw7NPTBBE3ucP6tdrTfDyCk3eFwd5+GWj3nRde3b99+ulCTDx8+XF6+fHnbolrPz8+XV69e3bao5LvbIzX49Invcz0+fvx4e0YZbFa6GzZrnev3b37i7aHTv2/+uj2jGk9PT5fXr1/ftqiEzTrA7z/+cntGNM/1/9+72KyNfvjt5y+P//3xz5dHopn4OyvRItisRItgsxItwm3W6/V6e7bN5sn2VhxN7Tll86O8o/0M5Hy24mhqz0nnZ+aOuuZZP7vhd1b596oojmbmOc16wUazr5GOo+k5pyNeTy1+DCZaRFWzyt0C0UvXsvWwHY1rPTneto1W8k6enb91POzzxqM5gPGtnCxdy9bDdjSu9eR42zYi3lhpnh7P5kUyOSXpZpWD4ONRzUL02FpevczxRuUIm1fKHyVzfjoH494+TY9HOVm2llcvc7xROcLmlfKt0nGy9Ut1RCYnI9WsOJhmt0FyvSgp1bcXKc9H5IDNGyE6FmTPT+dg3NsH2bpC9nlR4tXXWs4pkwM2r0Z0HC1TP1On5ppKdvsHpiM52vnck32dEEdytPO5l7v8A5P88OWdRUcLW6O1DoyuJ3Cte7PX0XMOZ3q9tFH1R9W5S7MKWQA6Wi7A1kC0kOOPqnUE3rVItLJ1Hv31GlnfqyNR627NOktmEbUstB7ywux9TM8RzsE64uu1h5ZrSjWrt9h6foAtL5Bs63ej6Jxqc+5p1vmNrmtreUrHy5zT6POORMeplakz8prSd1YcFBEdTOfYAFtLwtbLHG9UjrB5Ol8ee2WPG+XVytbVOTbA1pKw9TLHG5UjbJ7Ol8eS0nGy9Ut1RCYnw23WqJjsR2Bb0+NeaFtjUBoXPTnetg3s148lUd7WfoTVuw/h0eNeaFtjUBoXPTnetg3s149CPwfM8fKFHkdgv1YaFzanxSH/5/Oedx/aH1+vfbBZG+AbIrQzf1sEm3Ufh/zXYL7wRN/iF6ZVkjuod2f9+9c/b8+I5mCzVoqalV+aRrPx2w0bsFnpHtisHd6/f3958eLFbYtorof7c0OiR8Vm3SD/SaJFNG90Pa2mdut5bKmtOeMcHh2b1SELqXcx7b0Ya36bmfGbD3+bmo/N6pCFx8VHR8NmnUSavXR3jcaxXx6j53i0+zSM27GaXIF9mRzQuXpMb0djOugrNuuB6Tu8vdvLQrb7ND0usbXwM7k99XQ+tu1zb47E1nHOhs060czFJrUjWPhadC7Z3Gy9iJ1vlcaJzXoqbIi1sVknq70DPQJcs44MOyc77yzYrDSFNKyOUuPJuJ0jQV+xWXcgi+4IdwneqdbGZr0jr4lHNFRU17tT1eRmjbgG+habdSfR4kezILINVZKpCzW5GbaeVxM54M2RsHlnxmbdYBdYVjRvaz8C25beVxoH2YfQanKFt0/o/TYHtRCe0hyM4/Hs2KxEi2CzEi2CzUq0iOu7d+/4CwHRAvi1Lh34tS59+POrw4/BRItgsxItgs1KtAg2a0D/FU0tPVfHKLpWS92R50L7YbM6ZDHjL2gkWha3nt9Tp0Tq0jmwWQ00qjaq0WY1LJ0Dm/XOpHkRka0cu0/nIkBv2+d4xHOBbR10P2xWY8+PlbL45XgIrxkyOWBz7Rxs2+dCz7XbOraOT3OxWROwcHvpOl5N2wxRTmRrrKTmOHQfbNaC1kaVeTbYANSDzbqhp8Fkng3LNrNEr5E1R9aifmzWgCxMr8FGss2MaIVzHlFvZC0ag83q2KNRI7x7UYTNauzVqHIM25j22FEOnROb1SEN4cVoaEaE9yaRyQGbq+fII9htT7YW7YfNashijCKrNrdU3+boXDtP5yKwX9PbdgwwXwf20/7YrESLYLMSLYLNSrQIfmEa0SL4hWkd+IVftCd+DCZaBJuVaBFsVqJFsFkD+q92akVzjvaXPzPOp7bm0X4mR8ZmdcgCwl/sSLQsqLMuQv575TxsVgONqrU2LNFIbNZJahpc8hBWVEPvx3OvBvbZ/ZFMvs3RuXaezrV52I7GdBCb9RvexzhZLLM+3qE2onVh6jpQWzuTX1PT5up8bNvn3hyJreOcBZs1IIsDIYulRWmRebVbF6atU1s7kx/l1Cjl19Y7EzZrQBYNIlrgRHtisyb0NGxprozZeBS49tprs3Oy8x4dm9XYe2Hg7m3jUdjrKv18ZdzOkSA26y5ksdW8CfBOQh42q+E1Ft7tR8scK8opqb2OGeeyNUb12KwOLEpEtMBrRDUyx2o9n9p5mfyamjbXy0cOeHMkbN4ZsVkDsjgQtaI5W/tLx7I5Ordmnhbti/JhK8fu07levijNwTgez4rNSrQINit1wUdUmo/NSlX075Fs1H3xC9OIFsEvTOvAL0zrw59fHX4MJloEm5VoEWxWokWwWYkWwWYlWsLl8hmdS3oVv6PT+QAAAABJRU5ErkJggg==;" vertex="1" parent="1">
          <mxGeometry x="185" y="980" width="235" height="95" as="geometry" />
        </mxCell>
        <mxCell id="wXEADglzX_RcnhATfGNt-6" value="" style="shape=image;verticalLabelPosition=bottom;labelBackgroundColor=default;verticalAlign=top;aspect=fixed;imageAspect=0;image=data:image/png,iVBORw0KGgoAAAANSUhEUgAAAYMAAAAvCAYAAAABzaYzAAAAAXNSR0IArs4c6QAAAARnQU1BAACxjwv8YQUAAAAJcEhZcwAAEnQAABJ0Ad5mH3gAAAVpSURBVHhe7d0BTuw4DIDhmXcduOM7B3fY48B5WCyNJa/XSZwmbVP6f1I0TOM6qdNpFtgnnh8fH98PAMCtPb9/vL5G0tfX1+Pt7e31Dr2o3xjqN4b6xf68XgEAN8ZmAABgMwAAuM3g+Xy+vqrzca3zsnkzbK6ZeWfIzsfH1c5b6Rr3nstI/WptNb1zsvG1c7N5S3Fy3DbPHov6a3rjz6TXry3iY7SV1PpEq/8Il/7OgN99H2vlesvcSm01I3Pa43r0QWZrJk2PR3rn0Rt/ht46+DiNvappm0GpCFcuDnAX8iDzomO/3WgdahvC6s/I1GYgk9U2UyZvLaZ0rBQvWv17mD2mzedzlsaI4nyz9L3t8zFC+6O+WWaOYXP5fPq+1G+NxETvfSup9ZXU8sqx2sOu9HCzx/RredXmlY7V4n3bk+TfUoffpLkZaJG0lQoS9dUKnMmbibFa8b35Zpg9ps+3JWeUI8pj4yI+T+88MmaO4XNF+TLjzYoRPq4V3ys7jxo5r6V3nFq874tiziBzGBFdg17rCqqbQTTRGRMv5bWF6h27lTMz5my917BVb85sfC3uiHr21E9io9bSyu+vSb6eEaN83Eyleewhe72iVZ+95niE6NquYuovkO2CrlKUK99YyJN1jtpKVpvPaq5WH3nG+da6BumXOJGJP9LUzaCHLaA2tOnNNFo3n2NrnitZtXaz8/0GV6iJ3E++rTjPrOmbgRZEXmtsAW1Dm69Z7w2o6+PbHfhr3vLh9Tm0bXGFtdhSoxGr1iRTB5lnK05jVrgm67TvDCJ73HR75AS8zH224r3YenhJ31EPrTPrs1IdzlLdDKICZRasVbRSXnte79itnJkxZ8teQxQnovlFcVZ2zFGlcfx8R8y+lsy5rWvKXHcm5gileUSi46XYUavUJ3JUHVa4Vq/5nYEunLZZF5HJ2zt2K7433wzZMX1cKTYT52Na/TZOXrNa48yQHcPG+KZ8Lmk+X2a8WTHCx9l4eR2VmYcci+ahx/fgx7PjRHPRGHndi+SPxtbjWXvPcy//2QxKF6zF0H4fVzpPlfo1Z+18H2Njo/N8vNfqH5EdMxNXihGZON/v42y/Nj1uX63SMW2jSjn8GD7O9kfNqvWpVr8YiYne+6bH7auwX3ulPjmuTd9HbFwUY4+VvrZaMXJMm2f7bIy+7ika12vNw/f3xp9hqd8ZAADOwWYAAGAzAAA8Hs/Pz8/zf1gFADgVfxB/A/6g9hjqN4b6jZH6vf/z/nr3f99/7/lI5MdEAPBy141AsBkAwI87bwSCzQDA7d19IxBsBoEr/uvBVdh/uYl+1G9cb+38RtA6P7NGmRjLx9nzffNqfT3YDIwZBb0zqZ38/wjaqGUf6jdG6tVbM7sRZM6X/tYaZWKsUr/NYZvVO1YNm4ERFRs5elNaozfnnVC/cVIvX8Ma/x1B6/zMGh25jrPHYjMAcDur/I4geqCP2pqPzQBTzL6h7yaq3x4PCmyXWYuedcysr8RoK8nEZLAZYDdyc/Iw62M/2NRufaV1mrGOeq42ee9lYrLYDLCLkQ/Bnc36YGN/tXu8tY6Zz4fvj3JlYrLYDDBd5kZH28gHG/vqucf9OmbOPePzw2aAqdgItuGhfx21ezy7jhJnmx5T9uujsBlgGrmB2Qjwm824x+V83/T4mdgMMAUbwRipnf+vQWq6lsx6zFrHTJ5ZYyk2A0wjN2LUkKMfbm1bP9TYj10f26xZ65jJM2sswWYQGCnoXUnNSg151G3caO1K59u18c2r9UVKcZk8mZgMNgMAAJsBAIDNAADwgz+IDwDgD+JvwR8kH0P9xlC/MdQvxo+JAABsBgAANgMAwOPx+Be2+YTV6ZRxywAAAABJRU5ErkJggg==;" vertex="1" parent="1">
          <mxGeometry x="-250" y="990" width="387" height="47" as="geometry" />
        </mxCell>
        <mxCell id="wXEADglzX_RcnhATfGNt-7" value="" style="shape=image;verticalLabelPosition=bottom;labelBackgroundColor=default;verticalAlign=top;aspect=fixed;imageAspect=0;image=data:image/png,iVBORw0KGgoAAAANSUhEUgAAAWQAAAA8CAYAAABRscAOAAAAAXNSR0IArs4c6QAAAARnQU1BAACxjwv8YQUAAAAJcEhZcwAAEnQAABJ0Ad5mH3gAAAbjSURBVHhe7d29biRFEAfwXR7DGQQkvge4kxw5ACGHPAERD3AgkfEAIHIyHoDsZCESR+YFLDs6i9BvcTKq05Qo1VX1VH/MTs34/5Nau9NdXdPbO1O32tPdHu/u7p4PCXzzy/eHv378fTryReNO4fHx8fD69evpKIezs7PD09PTdPQ/r39Nt7e3h4uLi+koB9onovfK619T1v3zrj+C/Sv7bHqEHaGLX7dsxZh8+PBhepYH7RM1a/+y7WHG/SN677B/cWk+IW/R+/fvD2/evJmOoNbNzc3h8vJyOoJa2L8+GfcPn5A7PD/jz7IeWT/hbQX2r0/G/UNBhtWgoPTB/vXJuH/Hz99+hY95nf55+8f0DGpcX18frq6upiOohf3rk3H/UJAH+OnLb6dnAADtjs/4IrTZFz98/fHx31///vgIdR4eHg7n5+fTEdTC/vXJuH/4DhkAIAkUZACAJFCQAQCSMAvy8XicnpXpODq22mhL5CSj8kbz6LjSvKVec4tTrYXOI5tFx3DTrBjZ9mhPr3Gv75E2/BMy/R2hbqM3k3LCepbefy4g8hqixv2ajuNYzYrjtie1+7cFe3uPPCf5yoIvBoAo6wasuSlf+jXXu3+wjqqCzH/C9l7oMk8pnzduxXuxhPu8GNlXGtf9tUblYTKfzumdw4rTTeJjOaZjCI9bYzVofqlwvPRCO6dl/+iYm8Z9Xow1h1hx1nzCfZEYqRS/VeGCTC+a3kxurZug83j5as4XiS3FcJ9+TiK5I0blYTpfS04rh5VHxll0ntp11PLWATFy/yLvXe/7u8Q5auO3IlSQ+cVL+rhEzo/M885nbXo0NppPqllHiZdntNqc0fhS3Kg9Gs1aF/VZ7aWi1x5570oxVrzMO+IcWjTnFg3/Dpk2RTe9ea1G5YF9iV5z1Gc1gCyGF+TIBW/dQD1G55OWzN2D9nXEunSO1jxr0tcbNTgd2m++buhR77+8triBbXhBnkNvhrxxuPWw8lEbwcpLLQO9ptoLfYn34hRwQ/c59f5Z1xg1+NTJC3KPmgtpyYsOBWE5dKOW9pfGcDP71to/Pm80d2mNL1moIFtv8pIb6p3PerNrYmuNyu3l0aw4Yp3TipOi5+zlnUevt5a11iXWv1eR/VvqvZOWOMcp1r2W8Cdk3gRurS9e55H56JHVnK8mtkSvgYzOPZdHx3mxkTgdMzcu4+gxau48tWi+tTbuh7Ka/dNxenyEJc5xinWvwSzI3oujfm58LHnzNJmHG/dLepzpY+LFEquPRGM5r5dH8+J0nkicF0MicXpcx8lxbtwvHyWvj9soMqeXN3q+aNyeyL0rvf5SjDevJpZw/pp5st+bx20vNvUdcjb0H9PjP6cHgFFQkBvQL4XoBgDQCwUZACAJ/MhpJfqKwvpE/O6736ZnAABtUJAreQUZ3yXXox+ZfPXnq+noU88/49IswY+c7g9+dboBCvIYpYKMYjwPBXl/UJA74Ibo4xVkFOMYXH/7g7/Ug1RQjOElQ0EuoH8BBO1q908X47n5/K+0SnGRGEnHyfm6adEx3bTSGGsZK80paZ0XtXT+LUFBNtAFgoukXcv+yWIcmU/j9G0bNys+EiN54zKHbNLcueSYbFpkzRxTYs2D/FCQDXwzQJva/dOfjOfmWwWJjmURisSMMupckTxWDOwHCjKsKst3xksUurl8SxZXXchLKI6bJPv0c37k54z7dL80FyPHrTg+9sZ0n8TjpZg1oSDD5kSKmBVDN2FNvxS5kSMxJVYRpePI623F+bnJ83Offk7kPFbKxeZi9HgkjsesPkmOezFrQ0GGXeCbTaN+btZ4BM8t3ciRGMlbD8/lZsVEza3Dyj83h+l5kVxejKSPPTKOz2P1scj6MkBBhs2zbjZG/dysm680l+lxK1ckJoLXw806T0te2AYUZNg0LmARuphF5kZzj2CtR6+ZWH2emthedB7dWozKoy2VdyQUZNgsuqG8ghm92eTNyXPkXPl8FMrprTuqd/4SaE1Wq8F705PDY+WllgkKMmzSqKKmG/dn1fIHBL2eJf5giVjrvFHZ1oeCDJsTKcZWEYrM0yJ51j5Xq1HrJq1r18dLGflal4SCDJtEN5PVJL4JubXefJE8a5yrhreekeeryeXF6HEZR4895s6dAQpyQcY3bEt698+bT/1e00pjFi8ukicSQyLjc3laxkr93DxybC4ukkvG6Fg5zo375aNU08ctIxRkAIAkUJABAJJAQQYASOJ4f3+f88sUAIAXBj/h1AE/odMH+9cH+9cn4/7hKwsAgCRQkAEAkkBBBgBIAgUZACAJFGQAgCRQkAEAkkBBBgBIAgUZACAJFGQAgCRQkAEAUjgc/gMQK4RsugUMKAAAAABJRU5ErkJggg==;" vertex="1" parent="1">
          <mxGeometry x="-650" y="990" width="356" height="60" as="geometry" />
        </mxCell>
        <mxCell id="wXEADglzX_RcnhATfGNt-8" value="" style="shape=image;verticalLabelPosition=bottom;labelBackgroundColor=default;verticalAlign=top;aspect=fixed;imageAspect=0;image=data:image/png,iVBORw0KGgoAAAANSUhEUgAAAOkAAABCCAYAAACy7PHOAAAAAXNSR0IArs4c6QAAAARnQU1BAACxjwv8YQUAAAAJcEhZcwAAEnQAABJ0Ad5mH3gAAAVzSURBVHhe7ZxBktQ6DIanuQks2Mw94ACcgDO8t+AQ1LvMW3GPmS1XAUS1qlRCsiXbStzk/6pUnbH/SHbsP2kGyO3tPx9+PIFhvrz/dD8CoIbbj1/cj0GCd/9+/P35/eu3358AVPHm/gkA2BSYFIDNgUkB2Jw/THq73e5HbVhHn71gXQWtvFU1W3g1zxiLBY2jF6yroJW3quYIO41l+klKv3eS0Wq7CjstsMZbG6vtyuw0f3zdBWBzwialpwPHCPI8Po7kjGgyyHw6p1fDa/egu3D0HB6Hpec2q987h+H+lqaFPI+PIzkjmgwyn87p1bB0OiT8s+zTGoL7rb5KQialQfFXocwGbBHJubquzjeSc3YMksj8pIb7rTaJ7Pc0WSI5V9fV+UZyWjmsPFJnofNkxzFD16Q8OIk3kQxWTjlxr+7qi5OdS1TfG2t0flLD/VYbE82bpZezqq5G1+gR1bd0R83NA38mBWBzLmVSvvvJqOTIu61Ez/GMMaxg1XrpHKN5zuJyT1JaeBnZBXuEBdZz5HhE9BxG1kvnoHgk8HW3GNoQOxj7EW4uwKZrUmuTrVhwK6e8w3l19V3QM4GltXQSr2YF0fllqcrbyxmta+kIS2vpJF7N1UTnVkXoScqD5FgxuEjOaF2t87QRndZY/Vm8c3q1RqnIG8kZrat1njai05pev9TRZ5RenUr+MKlXnNo5+GeLTDvn884hIhpC6lraiE73ezqLVk4LrmP1z7ZxtPD6R3NGNITUtbQRne7XOtnPwe3yU+K1cRzJKf/p++g7EZgD63UuMGkSfiOD5G9/OwNMei6n/HYXCw5AHLyILAE9Ma0n6f+f/7sfAbAemDSBZ1K8jAxUgrcFJoFJwdHApIO8vr4+PT8/338CoA78s0AANgcmdaC/dpill4P6rfBo9RFWf7SNyGp1SKx+HYzVRxGhp9M5OXpE9VrHsRKYVFFxkVvQnzZ0HDGGmfx0rjduRvd5bYzuo1h1DbzcVn5uj+oJrWX9KmBSBV/kWXihRxarVd/Lt3JTtOB5WYzO16OXj8cyUrN1ja2+lt5idFwWMOmmrFxki6r82c18Jvoa0HFr/NVr4gGTFiAXe/XCWvl6m2slZ21UTeU13g2Y9MKMbm4+T8dqKCcb8dFYOXaYdDHW4oyawUPmO2sjU00dM3Okc3VQTgurb7b+DHLMHN7YR4BJL87KzT2Ti87VsWpc1VSPHSZdCC8Mferg9lXwRqDPvxVrs8trqYPbd2ClUWHSxdDieJGBFjh7zihUJ7qhdjCBvKY6MuhrTMet+R25JhKYdBGRBextAiaiIc7YMK05VG/io66x1RfJWQVMejK0+Dpoo1VudotMPTaCNe7VcK0Z9DgpKK81Xm6P6ltwnllgUoeRBYkgdXRshUerj7D6o21EVqujRas/em5Px0gdHVvRI6rv5er1R4BJAdgcmBSAzYFJAdic28vLy/yXZgBAGXh9yiB4fcocuH5x8HUXgM2BSQHYHJgUgM2BSQ3kvzQZRebo5YlqI3k02XwjNUAtMKmCNiH9Lo0juylJr3NwHp0rowXXBSYVsGEkbJoMOgdhtREZLeGNZaWpj6gB4sCkC6FN3DIY9fFGz2jBtYFJBS3TrGK2hmXenuGzHFEDxIFJO2BzgrOBSRvsalD5pKsa4xE1QAyY1AEbE+wCTGpQaVB+Os3CT7rKG8kRNUAfmFQxsyl5U3vI3BktuDYwqWCVMSzzeYbMaDWRsXo3A2qLng/OBSZV0Oa1IgptajaGDG6XZLQzeDXAYwCTCtgcVmTJnB/VRvJ4yPw9XYteP1gPTArA5sCkAGwOTArA5uBFZABsDl5ENghepDUHrl8cfN0FYGuenn4CVQUD8fP5gyoAAAAASUVORK5CYII=;" vertex="1" parent="1">
          <mxGeometry x="-740" y="880" width="233" height="66" as="geometry" />
        </mxCell>
        <mxCell id="wXEADglzX_RcnhATfGNt-9" value="" style="shape=image;verticalLabelPosition=bottom;labelBackgroundColor=default;verticalAlign=top;aspect=fixed;imageAspect=0;image=data:image/png,iVBORw0KGgoAAAANSUhEUgAAAeMAAABJCAYAAAAOh04EAAAAAXNSR0IArs4c6QAAAARnQU1BAACxjwv8YQUAAAAJcEhZcwAAEnQAABJ0Ad5mH3gAAAuySURBVHhe7dw/kltHDgdgcm9iB0roG0wsO1C4J9hkLiAHm+0FXD7ARHuAzVgKXIpXqSKmDnkLFW2oCBvCAN3oRvd7j+Tvq0INXzce+g/J1x5J5f35fL58+vRp9+bNmx30+fz58+7t27fXK2j18eNH7F8C9i8H+5eD/cvh/fvH9RoSvnz5cn0FPbB/Odi/HOxfDvYvh/dv/937Hy9fX0Ha/9//9/oKWnz48GH37t276xW0wv7lYP9ysH85vH84jAf695t/Xl8BAADE/XUY//7Lb18boN33P//09Sf2sM/pdNodDofrFbTC/uVg/3Kwfzm8f/g7YwAAgJXhMAYAAFgZDmMAAICVFQ/j/X5/fVWm80r3RWsuYfZcWvePftaC82Yo1Z01Zgmv2YvZ5BhLjDea3CsZGb336zlwZHj3Z+uy2fUfAe2Vjllm1l7CQ/9mfLls6x+S03xklNoehV6/jNmWGGM2vWcUsx+Knhlzmb2ONfbpXtDeee85vIY/pgZ4MPRA3IotzQXG4YPYggPZ1nUY00ZyjCDr6ZreGFaeDomvZZ/OIdxv9Y2SHUPex68jNSM5LWQ9XdMbI5rXgmvQT6u+Nwb3yZD09T2xHohyHziYvPb6ZLTwHs6RetEHu6zFEdFycJRqc5vV793DuL+Uc2toX7XSOrmtlMNqObK/lLe05sOYJk4byZFdiK7XU9OqYdWReRZdp3UeETPGiNQcPa6u11OTa4wg58PzsNqY7JOh8x5FbT/4Wr+etY+6bqberDlKkfnKHO632iTZ7+VsUetcI+sckaP7vbw1NB3GvBBJX4/QWjOaX8rz1jbyTZq1f7V5L7E20rqWSD7N0QpN1uK1WW0sMvYj6d2PGfuo3zui3z+p1Eeyc6zVj85X5nC/1caidbeK56pDo7bIOkfk6P4twd8Zw6bRl8cKANg+67trHciwgcOY3xwZPXSN3joQM/J9W4ue/5pz2YLe/ei9r6S1Zu0hr2uVci1rHSJ6zmvMYTRrL/Uadf9IS47VYhO/GdObI6N1cyhf16CAufR+975va8Bn5lu9+zFrH62aFD1u+b225k1xb6w1Uoy25c8C/pga4AHxQ2kLonOhvBKqUcvJmF0/agtzqBkxx1tY50hNh7H1YbQ2zPvQUpv+0tU2PDpmljeOnm/GrLXU5h1dm5VHrFwrT/LGhPVt6X2w5hL9vG7FrPne2j5I1tyZXsMtr3Ok5t+MeeM4vA3TeV5uJE/n1PplHv2Mqo0zwowxIjWj4+o8LzeSp3O8/hJ5v44Ma/4UkTndEr0+Clqj915YufSTedc6dB7RORSUR6HpulaOJVJL1qSfLbx56DG8vFaz6i5Bz720hqXWWZoT/VxT8TD2NoTaOfjaIvO8HBLJ0/06T/ZzcLv8KXltHFleDT1GKc9itXM97x4SySEyr5QbydP9Os+7j8h7rWDyNYu0cR0Z3C5/Evn6VvCadHi8XP7JrGsd3M50P0dJLa+lXdbi4HaP11dq59CybRy3Rs69toZSjnefbI/kELrWwe1rwt8ZD/D7L799DQAAgB44jBO+//mnVwEAANAKhzEAAMDK9t+9/3HdPyi/UfTH0tZvwsd//Xp9BQAAEIPDuJN3GOPvjtudTqfd4XC4XkEr7F8O9i+H9u+H//1wvXrt8h8cMSX8+dufz+fL8XjcPT8/X7sgCofxGHgY5mD/crB/OaXDGAdxHX/+8HfGCXTwUtAfTfNrAADAQdwKhzEAAAyFg7gdDuOAtf/PLLdM/l9uWsl7Zcyk688ej8i1yRghWq+1P1I3mqOV8km0rpcj+6x+pvM4oEwfxNizGBzGBfjy5dDeyf/LTc9eyvszdXrReLPw50uvjyO7Tl3bqsdzaBGtW8vRKKeWF6kbyZH9JTKPozbHRyYPYton7FUcDuMC/vJBO34gSqMeZPfwQOT9KX2+MuuM7n9tDj2iY2u1uUTq9o7dYnS9e6F/I6Z90u8F+HAYw13wHo66na5lMHmtX2vcb/WRSL9+SHn3eA9+L382Gk/P3ZvjIyq9L9zm5Vj3EK99S/B3xHk4jGGKLf4XMT3UaF4y+EHH1/q1pmvoB2Wt39J6j863eO09eLwoytVrsGq01h2NxtfzzOD1cFi1IznwmHAYw2L4QZQ1qg5pqWONKx+otX6ic6x7Slrzpcy9rXjdHEuNG8Vz6pmXtR6rja6pXSrlWPlWXbhPOIxhEb0PFbpPx9YeTrfwsFx633g8DrrOsuro60gOobwIuldH9F6AFjiMYbrMA4zu00H1evC9MrZGz4muad4ZI2q0sMbLvG+Sfg+tddVyrHs8lKuDas4i61tzh/uFwximmvFAyTwQ6V4ZMx+sETwHDrom+rpXtsaIOVgydek+Dk8ph8bOoJrZGgAaDmOYZtaDfGtaHszWg5wPDd4rfd1rxv5TPT3/pd7nyD5HcraO93iJPYXtwGEMUyz9MPEOCSn7oPbG4HXW+hnn6VzJ67fGsFCOHncp0X1oFanbm5MVGRegBIcxTEMPIytGsB5+3MahH4S6v5TjaR1D9zNq17kyuN+i7/PIHBlZenxrnpGcHqPGljk9+H4pMm5E5l64XTiMA/DFaEd75kVULdfq1+PoHNmv+5hst3Ii95f6JZkro6aWK/t1WKz20qFQq0e8nNphU+ojXl2pJcdT6iNWP9f0+ixe+7249/WNgsMYAEyzHqJ4OPvwW/HjwmEMAACwMhzGADeGfnuSAfcBvxU/tv3Ly8uf7/9l9/T0dG0CAACAJe3P5/PleDzunp+fr03Q6nQ67Q6Hw/UKWmH/crB/Odi/HOxfDu8f/pgaAABgZTiMAQAAVobDGAAAYGU4jCvwr1ZzRu1f7/1LvW9ynTK2oGUeXq5u5/WVakdztFI+idaN5kRE87Te++Dx4DAuoC8S/UtzDnyx2mxh/2jcmWhNep0y1vzM8Nyiorl6vdZ9kRyNcmp5kbqtOTPNrg/3A4exg7+skvfFhtdG7h/X2tre87z0OqU1512b2yy8L1JkH2rz7a2rWXVKOL91HIAWOIzhpnkPSG7X/XStwxLp1w907x7vQa7zZY5sk+3EasuiepEDysrb0kG19Py8utyu++lah6XWfwvkGm59LUvAYeyIPJjAN2r/6AvMtbIPVa6lQ9fUeZExW++J5Msc7rfasrimp9avRXNb647SMqacI/3M7DnX0qFr6rzMmGuJrhX+hsO4AX/AoM+M/bO+4N44kbGte/UYOscbz+ONock2eq3v47Zb0LpHS6A5ZffPeg+8tUbWb91rjbF1kbXCt3AYB3lfMIjp2b97eTBt2RKf61FjWO995rNA9UrzsuZtzQFgBBzGAaMeJo9q9v7JB2RtLOrXMZquSddb/PwsMa/RY/B7zbGFfeU5kdqc5Nw57tUjrXUEHMYV9AHawhf+VvXuH39x+Ussg9tb0T00Fx1ZVEPOj2vq6y2S86bgNkave+dfujdTl+7j6CHX5+Ec+qmD21vRPXLumTVs3SOtdRQcxgX8gYI+2f2TX2IdGrUt9X7xWBLPi8fX11sk5yjnyj8t1KfXbu37jPdCj2uJzi+C7vFCo7YZa4bHgcPYgS9WTmb/Ivfyw280q641H84rzcHr98a4F7QWvV8jRN+bGquOFKlZq9Fr1Brh9uAwLqAvgRUQY+0dxVr4QadDPwB1nvcgpHavJgX3W/R9Xt4WReYu+2VkRcZuzVmKnhcHt7PI/Lcuulb4Gw5jB31ovIA6a984aiI5ROdZ91k5Orhd0v0lMldGTSk306ZFcpjM5Yenhdo5NNmng5TqklIf0fUsLTla6R5J50Vq0bUObpd0/y2Sa5Br4Z/wLRzGAGCa9dDEwxjgNRzGABtQ+20RAO4bDmOAFdDhKwMHMcBj27+8vPz5HLjsnp6erk0AAACwpP35fL4cj8fd8/PztQlanU6n3eFwuF5BK+xfDvYvB/uXg/3L4f3DH1MDAACsDIcxAADAynAYAwAArAyHMQAAwMpwGAMAAKxqt/sDMkq/b6gL130AAAAASUVORK5CYII=;" vertex="1" parent="1">
          <mxGeometry x="-450" y="880" width="483" height="73" as="geometry" />
        </mxCell>
      </root>
    </mxGraphModel>
  </diagram>
</mxfile>
